<svg width="26" height="26" viewBox="0 0 26 26" fill="none" xmlns="http://www.w3.org/2000/svg">
<path d="M1.20801 21.7176V14.9948L7.08958 12.4746L12.9712 14.9966V21.7176L7.08958 24.2359L1.20801 21.7176Z" stroke="#7DDEDA" stroke-width="1.85714" stroke-linecap="round" stroke-linejoin="round"/>
<path d="M1.20801 14.9817L7.08958 17.5018L12.9712 14.9817M7.08958 5.7981L12.9693 8.3201L18.8509 5.79995" stroke="#7DDEDA" stroke-width="1.85714" stroke-linecap="round" stroke-linejoin="round"/>
<path d="M12.9688 14.9819L18.8503 17.5021L24.7319 14.9819" stroke="#7DDEDA" stroke-width="1.85714" stroke-linecap="round" stroke-linejoin="round"/>
<path d="M7.08984 17.5055V24.2376M18.8548 17.5055V24.2376M12.9696 8.32007V15.0504M7.09356 12.4708V5.74793L12.9733 3.22778L18.8548 5.74793V12.4708L12.9733 14.9909L7.09356 12.4708ZM12.9696 21.7175V14.9946L18.8511 12.4745L24.7327 14.9965V21.7175L18.8511 24.2358L12.9696 21.7175Z" stroke="#7DDEDA" stroke-width="1.85714" stroke-linecap="round" stroke-linejoin="round"/>
</svg>
