<svg width="26" height="26" viewBox="0 0 26 26" fill="none" xmlns="http://www.w3.org/2000/svg">
<path d="M4.33398 1.08325C3.13148 1.08325 2.16732 2.04742 2.16732 3.24992V7.58325C2.16732 8.78575 3.13148 9.74992 4.33398 9.74992H1.08398V11.9166H14.084V9.74992H10.834C12.0365 9.74992 13.0007 8.78575 13.0007 7.58325V3.24992C13.0007 2.04742 12.0365 1.08325 10.834 1.08325H4.33398ZM4.33398 3.24992H10.834V7.58325H4.33398V3.24992ZM3.25065 12.9999V15.1666H5.41732V12.9999H3.25065ZM15.1673 14.0833C13.9648 14.0833 13.0007 15.0474 13.0007 16.2499V20.5833C13.0007 21.7858 13.9648 22.7499 15.1673 22.7499H11.9173V24.9166H24.9173V22.7499H21.6673C22.8698 22.7499 23.834 21.7858 23.834 20.5833V16.2499C23.834 15.0474 22.8698 14.0833 21.6673 14.0833H15.1673ZM3.25065 16.2499V18.4166H5.41732V16.2499H3.25065ZM15.1673 16.2499H21.6673V20.5833H15.1673V16.2499ZM3.25065 19.4999V21.6666H5.41732V19.4999H3.25065ZM6.50065 19.4999V21.6666H8.66732V19.4999H6.50065ZM9.75065 19.4999V21.6666H11.9173V19.4999H9.75065Z" fill="#7DDEDA"/>
</svg>
