<svg width="26" height="26" viewBox="0 0 26 26" fill="none" xmlns="http://www.w3.org/2000/svg">
<path d="M16.25 11.7812H21.125C21.6637 11.7812 22.1804 11.5672 22.5613 11.1863C22.9422 10.8054 23.1562 10.2887 23.1562 9.75V4.875C23.1562 4.33628 22.9422 3.81962 22.5613 3.43869C22.1804 3.05776 21.6637 2.84375 21.125 2.84375H16.25C15.7113 2.84375 15.1946 3.05776 14.8137 3.43869C14.4328 3.81962 14.2188 4.33628 14.2188 4.875V6.09375H13C12.2458 6.09375 11.5225 6.39336 10.9892 6.92667C10.4559 7.45997 10.1562 8.18329 10.1562 8.9375V11.7812H7.71875V11.375C7.71875 10.8363 7.50474 10.3196 7.12381 9.93869C6.74288 9.55776 6.22622 9.34375 5.6875 9.34375H2.4375C2.17075 9.34375 1.90662 9.39629 1.66017 9.49837C1.41373 9.60045 1.18981 9.75007 1.00119 9.93869C0.620256 10.3196 0.40625 10.8363 0.40625 11.375V14.625C0.40625 14.8917 0.45879 15.1559 0.56087 15.4023C0.66295 15.6488 0.81257 15.8727 1.00119 16.0613C1.18981 16.2499 1.41373 16.3995 1.66017 16.5016C1.90662 16.6037 2.17075 16.6562 2.4375 16.6562H5.6875C5.95425 16.6562 6.21838 16.6037 6.46483 16.5016C6.71127 16.3995 6.93519 16.2499 7.12381 16.0613C7.31243 15.8727 7.46205 15.6488 7.56413 15.4023C7.66621 15.1559 7.71875 14.8917 7.71875 14.625V14.2188H10.1562V17.0625C10.1562 17.8167 10.4559 18.54 10.9892 19.0733C11.5225 19.6066 12.2458 19.9062 13 19.9062H14.2188V21.125C14.2188 21.6637 14.4328 22.1804 14.8137 22.5613C15.1946 22.9422 15.7113 23.1562 16.25 23.1562H21.125C21.6637 23.1562 22.1804 22.9422 22.5613 22.5613C22.9422 22.1804 23.1562 21.6637 23.1562 21.125V16.25C23.1562 15.7113 22.9422 15.1946 22.5613 14.8137C22.1804 14.4328 21.6637 14.2188 21.125 14.2188H16.25C15.7113 14.2188 15.1946 14.4328 14.8137 14.8137C14.4328 15.1946 14.2188 15.7113 14.2188 16.25V17.4688H13C12.8923 17.4688 12.7889 17.4259 12.7127 17.3498C12.6366 17.2736 12.5938 17.1702 12.5938 17.0625V8.9375C12.5938 8.82976 12.6366 8.72642 12.7127 8.65024C12.7889 8.57405 12.8923 8.53125 13 8.53125H14.2188V9.75C14.2188 10.2887 14.4328 10.8054 14.8137 11.1863C15.1946 11.5672 15.7113 11.7812 16.25 11.7812ZM5.28125 14.2188H2.84375V11.7812H5.28125V14.2188ZM16.6562 16.6562H20.7188V20.7188H16.6562V16.6562ZM16.6562 5.28125H20.7188V9.34375H16.6562V5.28125Z" fill="#7DDEDA"/>
</svg>
