<svg width="24" height="20" viewBox="0 0 24 20" fill="none" xmlns="http://www.w3.org/2000/svg">
<path fill-rule="evenodd" clip-rule="evenodd" d="M7.83511 17.8967H6.65898C5.5962 17.8967 4.66807 18.463 4.18066 19.3047C4.08606 19.4676 3.8781 19.5231 3.71532 19.4284C3.55254 19.3346 3.49629 19.1256 3.59089 18.9628C4.19514 17.9206 5.3423 17.2145 6.65896 17.2145H8.07969C8.10356 17.2145 8.12657 17.217 8.14873 17.2221C8.75383 16.2209 9.85157 15.5515 11.1053 15.5515H12.8951C14.1488 15.5515 15.2464 16.2209 15.8517 17.2221C15.8738 17.217 15.8968 17.2145 15.9207 17.2145H17.3414C18.6582 17.2145 19.8054 17.9206 20.4095 18.9628C20.5041 19.1256 20.4479 19.3346 20.2851 19.4284C20.1231 19.5231 19.9143 19.4676 19.8197 19.3047C19.3322 18.463 18.4041 17.8967 17.3414 17.8967H16.1653C16.2829 18.2447 16.3468 18.6182 16.3468 19.0054V19.1333C16.3468 19.3218 16.1942 19.4744 16.0059 19.4744C15.8175 19.4744 15.665 19.3218 15.665 19.1333V19.0054C15.665 17.4746 14.4249 16.2338 12.8952 16.2338H11.1054C9.57558 16.2338 8.33559 17.4746 8.33559 19.0054V19.1333C8.33559 19.3218 8.18303 19.4744 7.99468 19.4744C7.80632 19.4744 7.65377 19.3218 7.65377 19.1333V19.0054C7.65377 18.6182 7.7175 18.2447 7.83511 17.8967ZM11.6592 1.40827C11.6311 1.4347 11.6029 1.46285 11.5748 1.49099L10.7447 2.32165C10.6109 2.45469 10.3953 2.45469 10.2623 2.32165C10.1294 2.1886 10.1294 1.97198 10.2623 1.83896L11.0924 1.0083C11.3123 0.788273 11.4683 0.636473 11.597 0.549471C11.7444 0.447985 11.8765 0.41046 12.0052 0.412165C12.1314 0.41387 12.2618 0.453954 12.4092 0.557145C12.5387 0.647544 12.6981 0.801907 12.9223 1.02704L13.7754 1.88073C13.9084 2.01377 13.9084 2.2304 13.7754 2.36342C13.6425 2.49645 13.4268 2.49646 13.2939 2.36342L12.4399 1.50888C12.405 1.47392 12.3726 1.44151 12.341 1.40995V8.89955C12.341 9.08802 12.1885 9.24068 12.0001 9.24068C11.8118 9.24068 11.6592 9.08802 11.6592 8.89955L11.6592 1.40827ZM9.01722 4.12203V6.15091C9.01722 6.42552 8.90728 6.68903 8.71127 6.88094L7.32974 8.24121C7.26412 8.30517 7.22747 8.39301 7.22747 8.48427V10.6266C7.22747 10.815 7.07491 10.9677 6.88656 10.9677C6.69821 10.9677 6.54565 10.815 6.54565 10.6266V8.48427C6.54565 8.20966 6.65559 7.94699 6.85161 7.75423L8.23313 6.39482C8.29876 6.33086 8.3354 6.24302 8.3354 6.15091V4.09731C8.30387 4.12716 8.27148 4.15872 8.2391 4.19113L7.40898 5.02178C7.27603 5.15482 7.05954 5.15482 6.9266 5.02178C6.79366 4.88874 6.79365 4.67211 6.9266 4.53909L7.75672 3.70843C7.9766 3.48841 8.13258 3.33661 8.26126 3.24961C8.40871 3.14812 8.5408 3.11059 8.6695 3.1123C8.79564 3.114 8.92604 3.15409 9.07349 3.25728C9.20304 3.34768 9.36241 3.50204 9.58657 3.72718L10.4406 4.58087C10.5735 4.71391 10.5735 4.93053 10.4406 5.06356C10.3067 5.1966 10.0911 5.1966 9.95817 5.06356L9.10419 4.20902C9.07436 4.17832 9.0445 4.14932 9.01722 4.12203ZM15.0257 4.11691C14.9968 4.14591 14.9661 4.17661 14.9337 4.20902L14.0797 5.06356C13.9467 5.1966 13.7311 5.1966 13.5982 5.06356C13.4652 4.93052 13.4652 4.71389 13.5982 4.58087L14.4513 3.72718C14.6754 3.50204 14.8348 3.34767 14.9644 3.25728C15.1118 3.15409 15.2422 3.114 15.3684 3.1123C15.4971 3.11059 15.6292 3.14812 15.7775 3.24961C15.9053 3.33659 16.0613 3.48841 16.2812 3.70843L17.1113 4.53909C17.2442 4.67213 17.2442 4.88876 17.1113 5.02178C16.9783 5.15481 16.7627 5.15482 16.6297 5.02178L15.7988 4.19113C15.7681 4.16043 15.7374 4.13058 15.7076 4.10158V6.15092C15.7076 6.24302 15.7442 6.33086 15.8099 6.39483L17.1914 7.75424C17.3874 7.94698 17.4973 8.20964 17.4973 8.48427V10.6052C17.4973 10.7937 17.3448 10.9464 17.1564 10.9464C16.9681 10.9464 16.8155 10.7937 16.8155 10.6052V8.48427C16.8155 8.39302 16.7789 8.30518 16.7132 8.24121L15.3317 6.88095C15.1357 6.68906 15.0258 6.42555 15.0258 6.15092L15.0257 4.11691ZM13.9178 12.0124V12.6946C13.9178 13.7538 13.0587 14.6135 12.0002 14.6135C10.9416 14.6135 10.0825 13.7538 10.0825 12.6946V12.0124C10.0825 10.9531 10.9416 10.0935 12.0002 10.0935C13.0587 10.0935 13.9178 10.9531 13.9178 12.0124ZM13.236 12.0124C13.236 11.3301 12.682 10.7758 12.0002 10.7758C11.3183 10.7758 10.7644 11.3301 10.7644 12.0124V12.6946C10.7644 13.3777 11.3183 13.9312 12.0002 13.9312C12.682 13.9312 13.236 13.3777 13.236 12.6946V12.0124ZM9.23037 13.8246V14.4642C9.23037 15.5354 8.36189 16.4044 7.29145 16.4044C6.22101 16.4044 5.35253 15.5354 5.35253 14.4642V13.8246C5.35253 12.7543 6.22101 11.8845 7.29145 11.8845C8.36189 11.8845 9.23037 12.7543 9.23037 13.8246ZM8.54855 13.8246C8.54855 13.1304 7.9852 12.5667 7.29145 12.5667C6.5977 12.5667 6.03435 13.1304 6.03435 13.8246V14.4642C6.03435 15.1585 6.5977 15.7222 7.29145 15.7222C7.9852 15.7222 8.54855 15.1585 8.54855 14.4642V13.8246ZM18.6905 13.8246V14.4642C18.6905 15.5354 17.822 16.4044 16.7516 16.4044C15.6811 16.4044 14.8127 15.5354 14.8127 14.4642V13.8246C14.8127 12.7543 15.6811 11.8845 16.7516 11.8845C17.822 11.8845 18.6905 12.7543 18.6905 13.8246ZM18.0087 13.8246C18.0087 13.1304 17.4453 12.5667 16.7516 12.5667C16.0578 12.5667 15.4945 13.1304 15.4945 13.8246V14.4642C15.4945 15.1585 16.0578 15.7222 16.7516 15.7222C17.4453 15.7222 18.0087 15.1585 18.0087 14.4642V13.8246Z" fill="black"/>
</svg>
