<svg width="31" height="22" viewBox="0 0 31 22" fill="none" xmlns="http://www.w3.org/2000/svg">
<path d="M8.47199 6.66527L15.9298 10.9712V9.21975H16.5679C20.3663 9.21975 23.5782 11.9412 24.2033 15.6884L24.2633 16.045L26.2696 15.9711L26.3242 15.6392C26.807 12.7647 26.0009 9.83652 24.1155 7.61186C22.2302 5.38608 19.4776 4.10892 16.5593 4.10892H15.9266V2.35742L8.46875 6.6634L8.47199 6.66527ZM16.5627 4.9309C19.2381 4.9309 21.7616 6.10106 23.4885 8.14278C25.1437 10.0966 25.892 12.6436 25.5633 15.1722L24.9499 15.1936C24.1191 11.2335 20.6524 8.39414 16.5714 8.39414H15.1079V9.54289L10.1168 6.66183L15.1079 3.78076V4.92951H16.5629L16.5627 4.9309Z" fill="black"/>
<path d="M6.73918 6.85938H4.74143L4.67612 7.25122C4.19328 10.1257 4.99945 13.0539 6.88477 15.2786C8.7701 17.5044 11.5227 18.7815 14.441 18.7815H15.0737V20.533L22.5316 16.227L15.0737 11.9211V13.6726H14.4357C10.6373 13.6726 7.42538 10.9511 6.80022 7.20386L6.74241 6.86127L6.73918 6.85938ZM14.4324 14.4929H15.8959V13.3441L20.8871 16.2252L15.8959 19.1063V17.9575H14.441C11.7656 17.9575 9.24208 16.7874 7.51514 14.7456C5.85143 12.78 5.10627 10.2201 5.44566 7.67973H6.05378C6.8792 11.6483 10.3491 14.4929 14.4344 14.4929L14.4324 14.4929Z" fill="black"/>
</svg>
