<svg width="24" height="30" viewBox="0 0 24 30" fill="none" xmlns="http://www.w3.org/2000/svg">
<path fill-rule="evenodd" clip-rule="evenodd" d="M16.5262 12.562C19.3068 12.562 21.565 14.8202 21.565 17.6008C21.565 20.3815 19.3068 22.6397 16.5262 22.6397C13.7455 22.6397 11.4873 20.3815 11.4873 17.6008C11.4873 14.8202 13.7455 12.562 16.5262 12.562ZM16.5262 13.2338C14.116 13.2338 12.1594 15.1905 12.1594 17.6006C12.1594 20.0107 14.1161 21.9674 16.5262 21.9674C18.9362 21.9674 20.893 20.0107 20.893 17.6006C20.893 15.1905 18.9362 13.2338 16.5262 13.2338ZM18.5417 20.7919H14.5107C14.3251 20.7919 14.1748 20.6416 14.1748 20.456V18.7764C14.1748 17.8484 14.9264 17.0968 15.8543 17.0968H17.198C18.126 17.0968 18.8776 17.8484 18.8776 18.7764V20.456C18.8776 20.6416 18.7273 20.7919 18.5417 20.7919ZM16.5262 13.7378C17.3601 13.7378 18.0378 14.4155 18.0378 15.2494C18.0378 16.0833 17.3601 16.761 16.5262 16.761C15.6923 16.761 15.0146 16.0833 15.0146 15.2494C15.0146 14.4155 15.6923 13.7378 16.5262 13.7378ZM12.7044 11.2183C12.7867 11.4736 12.8312 11.755 12.8312 12.0581V13.2481C12.5893 13.4539 12.3642 13.6798 12.1593 13.9225V12.0581C12.1593 11.0529 11.485 10.3785 10.4798 10.3785H4.43329C3.42806 10.3785 2.75371 11.0529 2.75371 12.0581V18.805L4.36359 17.1951C4.42658 17.1322 4.51223 17.0969 4.60126 17.0969H10.4798C10.6058 17.0969 10.7259 17.086 10.8401 17.0658C10.8241 17.2422 10.8157 17.4202 10.8157 17.6008C10.8157 17.6503 10.8166 17.6999 10.8174 17.7494C10.7083 17.762 10.5957 17.7687 10.4798 17.7687H4.74079L2.6556 19.8539C2.55987 19.9496 2.41542 19.979 2.28946 19.927C2.16349 19.8749 2.08203 19.7523 2.08203 19.6163V12.0582C2.08203 10.6507 3.02595 9.7067 4.43355 9.7067H8.25879C8.17397 9.45224 8.12862 9.17007 8.12862 8.86692V5.50776C8.12862 4.10027 9.07254 3.15625 10.4801 3.15625H16.5266C17.9341 3.15625 18.8781 4.10017 18.8781 5.50776V12.3957C18.6615 12.2974 18.4364 12.2126 18.2063 12.1412V5.50785C18.2063 4.50262 17.5319 3.82827 16.5267 3.82827H10.4802C9.47501 3.82827 8.80067 4.50262 8.80067 5.50785V8.867C8.80067 9.18191 8.86365 9.46578 8.98374 9.70678H10.4802C11.2873 9.70678 11.9415 10.0167 12.353 10.5466H16.3588C16.4478 10.5466 16.5335 10.5818 16.5965 10.6448L18.0468 12.0951C17.6798 11.9935 17.2968 11.928 16.9047 11.9028L16.2202 11.2184L12.7044 11.2183ZM12.6775 8.35387C12.6523 8.35975 12.6263 8.36311 12.5994 8.36311H11.0878C10.9022 8.36311 10.7519 8.21278 10.7519 8.02719V5.00406C10.7519 4.81847 10.9022 4.66814 11.0878 4.66814H12.5952H12.5986H15.3925C15.7377 4.66814 16.0266 4.92679 16.0643 5.26522L16.2911 7.28072C16.2995 7.35798 16.2877 7.49654 16.2239 7.63258C16.1299 7.83413 15.9392 8.02728 15.6193 8.02728H14.5393C14.5704 8.42197 14.6014 8.86622 14.609 9.17023C14.6224 9.68501 14.1203 9.8748 13.9338 9.8748H13.5534C13.2343 9.8748 12.9597 9.65311 12.8925 9.3449L12.6775 8.35387ZM12.9353 7.3604C13.068 7.38307 13.1763 7.48468 13.2057 7.61988L13.5492 9.20205C13.5492 9.20289 13.5517 9.20289 13.5534 9.20289H13.9195C13.9271 9.20121 13.9372 9.19701 13.9363 9.18777C13.9263 8.79476 13.8767 8.16072 13.8389 7.71983C13.8314 7.62577 13.8624 7.5334 13.9263 7.4637C13.9901 7.39399 14.0799 7.35452 14.174 7.35452H15.61L15.6209 7.33017L15.3967 5.33904C15.3967 5.33736 15.3942 5.33904 15.3925 5.33904H12.9361V7.35956L12.9353 7.3604ZM6.95354 16.0893C6.95354 16.2748 6.80322 16.4252 6.61762 16.4252H5.10601C4.92042 16.4252 4.7701 16.2748 4.7701 16.0893V13.0661C4.7701 12.8805 4.92042 12.7302 5.10601 12.7302H6.62435L6.90987 11.4126C6.97706 11.1044 7.25166 10.8827 7.57078 10.8827H7.9512C8.13763 10.8827 8.63982 11.0725 8.62639 11.5873C8.61883 11.8913 8.58775 12.3355 8.55668 12.7302H9.63664C9.95661 12.7302 10.1481 12.9242 10.2413 13.1249C10.3051 13.2609 10.3169 13.3995 10.3085 13.4768L10.0817 15.4923C10.0439 15.8315 9.75506 16.0893 9.4099 16.0893L6.95354 16.0893ZM6.95354 15.4174H9.40997C9.41165 15.4174 9.41417 15.4183 9.41417 15.4174L9.6384 13.4263L9.62748 13.4019H8.19144C8.09738 13.4019 8.00752 13.3625 7.94371 13.2928C7.87988 13.2239 7.84881 13.1307 7.85637 13.0366C7.89416 12.5957 7.94371 11.9617 7.95379 11.5687C7.95379 11.5594 7.94455 11.5561 7.93699 11.5536H7.57085C7.56917 11.5536 7.56665 11.5536 7.56665 11.5544L7.22317 13.1366C7.19377 13.2718 7.08544 13.3734 6.95276 13.3961V15.4166L6.95354 15.4174Z" fill="black"/>
</svg>
