<svg width="23" height="19" viewBox="0 0 23 19" fill="none" xmlns="http://www.w3.org/2000/svg">
<path fill-rule="evenodd" clip-rule="evenodd" d="M17.8137 3.91296C17.6943 3.79549 17.6943 3.60428 17.8129 3.4868C17.9314 3.36852 18.1244 3.36852 18.2429 3.48518C19.0557 4.2897 19.7204 5.24168 20.1897 6.29804C20.6419 7.31482 20.9133 8.43123 20.9624 9.60681C21.0171 10.9136 20.7907 12.1702 20.3369 13.319C19.8651 14.5124 19.148 15.5899 18.2446 16.4853C18.126 16.6036 17.933 16.6036 17.8145 16.4861C17.6951 16.3686 17.6951 16.1774 17.8129 16.0599C18.6575 15.2222 19.3279 14.2151 19.7694 13.0988C20.1938 12.0253 20.4056 10.8505 20.3549 9.63029C20.3091 8.53493 20.0556 7.49296 19.6329 6.54096C19.1922 5.55254 18.5716 4.66295 17.8137 3.91269L17.8137 3.91296ZM11.9734 15.3689C12.2882 15.4305 12.5703 15.5844 12.7886 15.8007C13.0764 16.0859 13.2538 16.4797 13.2538 16.9139C13.2538 17.349 13.0764 17.7419 12.7886 18.0271C12.5008 18.3123 12.1043 18.4881 11.6652 18.4881C11.2261 18.4881 10.8296 18.3115 10.5418 18.0271C10.254 17.7419 10.0765 17.3482 10.0765 16.9139C10.0765 16.4788 10.2548 16.0859 10.5418 15.8007C10.7625 15.582 11.0471 15.428 11.3651 15.3673L11.3733 12.3225C10.9506 12.2683 10.5606 12.103 10.236 11.8559L8.84682 13.2405C9.01934 13.4924 9.11991 13.7963 9.11991 14.1236C9.11991 14.5587 8.94167 14.9516 8.65467 15.2368C8.36687 15.522 7.96951 15.6978 7.53125 15.6978C7.09217 15.6978 6.69563 15.5212 6.40783 15.2368C6.12002 14.9516 5.94259 14.5579 5.94259 14.1236C5.94259 13.6885 6.12083 13.2956 6.40783 13.0104C6.69563 12.7252 7.09299 12.5494 7.53125 12.5494C7.8583 12.5494 8.16245 12.6474 8.41511 12.8159L9.80426 11.4313C9.56797 11.13 9.40361 10.7694 9.33739 10.374L5.41277 10.3927C5.35227 10.7094 5.19609 10.993 4.97535 11.2126C4.68755 11.4978 4.29019 11.6736 3.85193 11.6736C3.41285 11.6736 3.01631 11.497 2.72851 11.2126C2.4407 10.9274 2.26327 10.5336 2.26327 10.0994C2.26327 9.6643 2.44151 9.27136 2.72851 8.98618C3.01631 8.70099 3.41367 8.52517 3.85193 8.52517C4.291 8.52517 4.68755 8.70179 4.97535 8.98618C5.19285 9.2017 5.34736 9.47958 5.41033 9.79069L9.3161 9.77206C9.3578 9.31269 9.5336 8.88977 9.80503 8.543L4.52721 3.28419C4.27457 3.45189 3.9704 3.55075 3.64335 3.55075C3.20427 3.55075 2.80773 3.37413 2.51993 3.08974C2.23212 2.80456 2.05469 2.41082 2.05469 1.97655C2.05469 1.54147 2.23293 1.14853 2.51993 0.863348C2.80773 0.578163 3.20509 0.402344 3.64335 0.402344C4.08242 0.402344 4.47897 0.578964 4.76677 0.863348C5.05458 1.14853 5.23201 1.54228 5.23201 1.97655C5.23201 2.30386 5.13144 2.60769 4.95892 2.85964L10.2359 8.11701C10.5613 7.86909 10.9546 7.70219 11.3863 7.64872L11.3945 4.60315C11.0797 4.54158 10.7976 4.38764 10.5793 4.17133C10.2915 3.88615 10.1141 3.4924 10.1141 3.05813C10.1141 2.62305 10.2923 2.23012 10.5793 1.94494C10.8671 1.65975 11.2645 1.48393 11.7027 1.48393C12.1418 1.48393 12.5384 1.66055 12.8262 1.94494C13.114 2.23012 13.2914 2.62386 13.2914 3.05813C13.2914 3.49321 13.114 3.88615 12.8262 4.17133C12.6054 4.38927 12.3209 4.54402 12.0028 4.60477L11.9938 7.64951C12.4901 7.71352 12.9414 7.92984 13.2947 8.25228C13.7419 8.66062 14.0321 9.23827 14.0599 9.88966C14.0869 10.5394 13.8457 11.139 13.4336 11.5821C13.0641 11.98 12.5563 12.2522 11.9815 12.3235L11.9734 15.3689ZM12.3569 16.2277C12.1795 16.0519 11.935 15.9441 11.6652 15.9441C11.3945 15.9441 11.1501 16.0527 10.9735 16.2277C10.796 16.4035 10.6873 16.6457 10.6873 16.9131C10.6873 17.1813 10.7969 17.4235 10.9735 17.5985C11.1509 17.7743 11.3954 17.8829 11.6652 17.8829C11.9358 17.8829 12.1803 17.7743 12.3569 17.5985C12.5343 17.4227 12.6431 17.1805 12.6431 16.9131C12.6439 16.6457 12.5343 16.4035 12.3569 16.2277ZM8.22297 13.4366C8.04555 13.2608 7.80108 13.153 7.53126 13.153C7.26061 13.153 7.01616 13.2616 6.83954 13.4366C6.66211 13.6124 6.55255 13.8547 6.55255 14.122C6.55255 14.3902 6.66211 14.6324 6.83954 14.8075C7.01697 14.9833 7.26143 15.091 7.53126 15.091C7.8019 15.091 8.04635 14.9825 8.22297 14.8075C8.4004 14.6316 8.50996 14.3894 8.50996 14.122C8.50996 13.8547 8.4004 13.6124 8.22297 13.4366ZM4.54451 9.41333C4.36708 9.23751 4.12262 9.12976 3.8528 9.12976C3.58215 9.12976 3.3377 9.23832 3.16108 9.41333C2.98365 9.58914 2.87409 9.83138 2.87409 10.0987C2.87409 10.3661 2.98365 10.6092 3.16108 10.7842C3.33851 10.96 3.58297 11.0677 3.8528 11.0677C4.12344 11.0677 4.36789 10.9592 4.54451 10.7842C4.72194 10.6084 4.8315 10.3661 4.8315 10.0987C4.83068 9.83138 4.72112 9.58834 4.54451 9.41333ZM12.3946 2.37288C12.2171 2.19707 11.9727 2.0885 11.7029 2.0885C11.4322 2.0885 11.1878 2.19707 11.0111 2.37288C10.8337 2.54869 10.725 2.79093 10.725 3.0583C10.725 3.32648 10.8345 3.56871 11.0111 3.74372C11.1886 3.91953 11.433 4.02729 11.7029 4.02729C11.9735 4.02729 12.218 3.91872 12.3946 3.74372C12.572 3.56791 12.6807 3.32567 12.6807 3.0583C12.6816 2.79093 12.5712 2.54789 12.3946 2.37288ZM4.3352 1.29046C4.15777 1.11465 3.91331 1.00609 3.64348 1.00609C3.37366 1.00609 3.12839 1.11465 2.95177 1.29046C2.77434 1.46627 2.66478 1.70851 2.66478 1.97588C2.66478 2.24406 2.77434 2.48629 2.95177 2.6613C3.12919 2.83711 3.37366 2.94568 3.64348 2.94568C3.91412 2.94568 4.15858 2.83711 4.3352 2.6613C4.51262 2.48549 4.62137 2.24325 4.62137 1.97588C4.62219 1.70851 4.51263 1.46628 4.3352 1.29046ZM10.3825 8.7984C10.0758 9.12897 9.89597 9.57456 9.91558 10.059C9.93602 10.5419 10.1519 10.9713 10.4855 11.2759C10.8191 11.5798 11.2688 11.758 11.7577 11.7386C12.245 11.7183 12.6783 11.5044 12.9858 11.1739C13.2924 10.8433 13.4723 10.3977 13.4526 9.91322C13.4322 9.43035 13.2164 9.00096 12.8828 8.69632C12.5491 8.39251 12.0995 8.21426 11.6105 8.2337C11.1224 8.25395 10.6891 8.46865 10.3825 8.7984ZM14.4764 7.22097C14.357 7.10349 14.357 6.91228 14.4756 6.79481C14.5941 6.67652 14.7871 6.67652 14.9057 6.794C15.3038 7.18855 15.6301 7.65602 15.8606 8.17537C16.0822 8.67527 16.2155 9.22295 16.2392 9.8006C16.2662 10.4439 16.155 11.0612 15.9326 11.6243C15.7012 12.2101 15.3496 12.7383 14.9073 13.1775C14.7888 13.2957 14.5958 13.2957 14.4772 13.1783C14.3579 13.0608 14.3579 12.8696 14.4764 12.7521C14.8607 12.3713 15.1657 11.9128 15.366 11.4048C15.559 10.9162 15.6554 10.3807 15.6317 9.8241C15.6105 9.3242 15.4952 8.84945 15.303 8.41599C15.1027 7.96633 14.8206 7.56205 14.4764 7.22097ZM16.1264 5.5844C16.675 6.12803 17.1247 6.77214 17.4428 7.48915C17.7485 8.17861 17.9325 8.9337 17.966 9.72852C18.0028 10.614 17.8499 11.4648 17.5425 12.2433C17.2228 13.0519 16.7371 13.7819 16.1256 14.3888C16.007 14.507 16.0078 14.6974 16.1272 14.8149C16.2466 14.9324 16.4387 14.9316 16.5573 14.8141C17.2277 14.149 17.76 13.3493 18.11 12.4629C18.4468 11.6098 18.6144 10.6765 18.5744 9.70504C18.5376 8.83086 18.3365 8.00204 18.0012 7.24623C17.6529 6.46198 17.1599 5.75468 16.5565 5.15764C16.4371 5.04016 16.245 5.04097 16.1264 5.15845C16.007 5.27673 16.0079 5.46794 16.1264 5.58461L16.1264 5.5844Z" fill="black"/>
</svg>
