<svg width="35" height="35" viewBox="0 0 35 35" fill="none" xmlns="http://www.w3.org/2000/svg">
<g clip-path="url(#clip0_874_891)">
<path d="M17.4264 34.3019C26.6782 34.3019 34.0208 26.752 34.0208 17.5738C34.0208 8.24752 26.5313 0.845703 17.4264 0.845703C8.17469 0.845703 0.832031 8.39555 0.832031 17.5738C0.832031 26.752 8.32154 34.3019 17.4264 34.3019Z" fill="#2C374B"/>
<path fill-rule="evenodd" clip-rule="evenodd" d="M26.5312 11.5051C26.3844 11.3571 19.1886 7.06402 18.3074 6.76795C18.0137 6.61991 17.2795 6.47188 16.8389 6.61991C16.3983 6.76795 8.76198 11.209 8.46827 11.5051C8.32142 11.6531 8.17457 11.9492 8.02771 12.0973C7.88086 12.3933 7.88086 12.5414 7.88086 17.7226V23.0519L8.90883 23.6441C9.49625 23.9402 9.9368 24.2362 9.9368 24.2362C10.0837 24.2362 16.9858 13.1335 16.9858 12.9855C16.9858 12.8374 15.3704 12.8374 14.9298 12.9855C14.3424 13.1335 13.9018 13.4296 13.6081 13.7257C13.4613 13.8737 12.5802 15.3541 11.4053 16.9825C10.3774 18.6109 9.49624 20.0912 9.49624 20.0912C9.49624 20.0912 9.49624 18.6108 9.49624 16.5383V12.8374L9.6431 12.6894C9.9368 12.3933 17.4263 8.10027 17.72 8.10027C17.8669 8.10027 18.0137 8.10027 19.776 9.13653C20.3634 9.4326 21.9788 10.3208 23.3004 11.209C24.6221 11.9492 25.7969 12.6894 25.9438 12.8374L26.0906 12.9855V20.6834L22.4193 14.9099C22.2725 14.6139 22.1256 14.3178 21.9788 14.1698C21.9788 14.1698 21.8319 14.4658 20.9508 15.9462C20.8039 16.0942 20.6571 16.3903 20.6571 16.5383L20.5102 16.8344L20.6571 16.9825L20.8039 17.1305C20.8039 17.1305 20.8039 17.2785 20.9508 17.2785L21.2445 17.7226C21.2445 17.7226 21.2445 17.8707 21.3913 17.8707C21.5382 18.0187 21.6851 18.3148 21.6851 18.4628C21.6851 18.4628 21.6851 18.4628 21.6851 18.6108L24.769 23.6441L24.4753 23.7921C24.3284 23.9402 24.1816 23.9402 24.0347 23.9402L20.2165 18.0187L20.0697 17.8707L19.776 18.4628L18.3074 20.8314L21.2445 25.5686C20.8039 25.8646 18.3074 27.6411 18.1606 27.6411C18.0137 27.6411 14.6361 25.4205 14.783 25.2725C14.783 25.2725 15.8109 23.496 16.9858 21.4235C18.0137 19.6471 19.3354 17.4266 20.2165 15.9462C21.2445 14.1698 21.6851 13.2815 21.6851 13.2815C21.6851 13.2815 20.9508 13.2815 20.0697 13.2815H18.6011L15.2235 18.9069C14.0487 20.9794 12.8739 22.9039 12.2865 23.9402C11.2585 24.0882 10.9648 24.3843 10.9648 24.3843L10.8179 24.6803L13.4613 26.1607C14.9298 27.0489 16.2515 27.7891 16.5452 27.9371C16.9858 28.2332 17.72 28.2332 18.0137 28.2332C18.3074 28.0852 25.9438 23.6441 26.3844 23.348C26.5312 23.2 26.6781 23.0519 26.8249 22.7559L26.9718 22.3118V17.4266V12.5414L26.8249 12.2453C26.8249 11.9492 26.5312 11.6531 26.5312 11.5051Z" fill="white"/>
<path d="M25.7964 20.5343L21.3908 13.7246L19.7754 16.3893L24.0341 23.347L25.9432 22.4587L25.7964 20.5343Z" fill="#24A2EE"/>
<path d="M23.7405 24.2354L19.3349 17.4258L17.4258 20.3865L20.9503 26.0119L23.1531 25.1237L23.7405 24.2354Z" fill="#24A2EE"/>
<path fill-rule="evenodd" clip-rule="evenodd" d="M9.34976 12.8364L17.4267 8.0992L25.5036 12.8364V22.3107L17.4267 27.0478L11.4057 23.643L10.6714 24.9753L17.2798 28.8243C17.4267 28.9723 17.5735 28.9723 17.7204 28.8243L26.9721 23.495C27.119 23.3469 27.2658 23.1989 27.2658 23.0509V12.3923C27.2658 12.2442 27.119 12.0962 26.9721 11.9481L17.7204 6.61884C17.5735 6.4708 17.4267 6.4708 17.2798 6.61884L8.02808 11.8001C7.88123 11.9481 7.73438 12.0962 7.73438 12.2442V22.9028C7.73438 23.0509 7.88123 23.1989 8.02808 23.3469L9.93717 24.3832L10.8183 23.0509L9.49661 22.3107V12.8364H9.34976Z" fill="#98BCDC"/>
<path d="M20.9516 12.8359H17.8677L10.6719 24.6788L13.1684 26.1592L20.9516 12.8359Z" fill="white"/>
<path d="M13.1679 14.0215C13.9022 12.8372 15.9582 12.8372 16.8393 12.9852L9.79032 24.384C9.49661 24.236 8.9092 23.9399 8.46864 23.6438C7.88123 23.3477 7.73438 23.3477 7.73438 22.9036V22.3115C9.34976 19.9429 12.4337 15.2057 13.1679 14.0215Z" fill="white"/>
</g>
<defs>
<clipPath id="clip0_874_891">
<rect width="35" height="35" fill="white"/>
</clipPath>
</defs>
</svg>
