<svg width="35" height="35" viewBox="0 0 35 35" fill="none" xmlns="http://www.w3.org/2000/svg">
<path d="M27.6817 6.64453H7.29297V25.1879H27.6817V6.64453Z" fill="white"/>
<path fill-rule="evenodd" clip-rule="evenodd" d="M34 17.5C34 26.6133 26.6133 34 17.5 34C8.38672 34 1 26.6133 1 17.5C1 8.38672 8.38672 1 17.5 1C26.6133 1 34 8.38672 34 17.5ZM12.8246 24.0657H9.62224C8.94904 24.0657 8.6164 24.0657 8.41444 23.9363C8.19532 23.7938 8.062 23.5588 8.04484 23.3001C8.03296 23.0612 8.19928 22.7694 8.5306 22.186L16.4374 8.24944C16.774 7.65808 16.9443 7.3624 17.1594 7.25284C17.3904 7.13536 17.6663 7.13536 17.8973 7.25284C18.1125 7.3624 18.2828 7.65808 18.6194 8.24944L20.2443 11.0874L20.2522 11.102C20.6152 11.7369 20.8 12.059 20.8805 12.3969C20.9703 12.7652 20.9703 13.1546 20.8805 13.5242C20.8 13.8647 20.6165 14.1894 20.2482 14.8336L16.0955 22.1728L16.085 22.1913C15.7193 22.8315 15.5332 23.1562 15.2771 23.4004C14.9973 23.6684 14.6607 23.8624 14.2924 23.972C13.9558 24.0657 13.5783 24.0657 12.8246 24.0657ZM20.9109 24.0657H25.4992C26.1764 24.0657 26.5169 24.0657 26.7189 23.9324C26.938 23.7898 27.0753 23.5509 27.0872 23.2922C27.099 23.0612 26.9367 22.78 26.6172 22.2309C26.6067 22.2124 26.5948 22.1926 26.5842 22.1741L24.2861 18.2418L24.2597 18.197C23.9363 17.6505 23.774 17.3746 23.5641 17.269C23.3331 17.1515 23.0612 17.1515 22.8302 17.269C22.619 17.3786 22.4487 17.6663 22.1134 18.2458L19.8232 22.1781L19.8153 22.1913C19.48 22.7694 19.3124 23.0598 19.3242 23.2961C19.3401 23.5562 19.4747 23.7951 19.6925 23.9363C19.8932 24.0657 20.2337 24.0657 20.9109 24.0657Z" fill="#E84142"/>
</svg>
