<svg width="35" height="35" viewBox="0 0 35 35" fill="none" xmlns="http://www.w3.org/2000/svg">
<circle cx="17.5" cy="17.5" r="16.5" fill="#F0B90B"/>
<g clip-path="url(#clip0_889_942)">
<path d="M11.5999 9.69984L18.0002 6L24.4006 9.69984L22.0006 10.9997L18.0002 8.69952L13.9001 10.9997L11.5999 9.69984ZM24.2998 14.3002L21.9996 13.0003L18.0002 15.3005L13.9001 13.0003L11.5999 14.3002V17.0006L15.6003 19.3008V24.001L17.9004 25.4006L20.2006 24.001V19.4006L24.2009 17.1005V14.3002H24.2998ZM24.2998 21.6998V19.0003L22.0006 20.4V22.9997L24.2998 21.6998ZM25.9999 22.6003L21.9996 24.9005V27.6L28.3999 23.9002V16.5005L25.9999 18V22.6003ZM23.7007 12L26.0009 13.3997V16.1002L28.3011 14.7005V12L26.0009 10.6003L23.7007 12ZM15.6003 25.8998V28.5994L17.9004 29.999L20.2006 28.5994V25.8998L17.9004 27.2995L15.6003 25.8998ZM11.5999 21.6998L13.9001 22.9997V20.3002L11.5999 18.9005V21.6998ZM15.6003 12L17.9004 13.3997L20.3004 12L18.0002 10.6003L15.6003 12ZM9.89977 13.3997L12.2998 12L9.89977 10.6003L7.60057 12V14.6995L9.90073 16.0992V13.3997H9.89977ZM9.89977 18L7.59961 16.6003V24L13.9999 27.6998V25.0003L9.99961 22.7002V18H9.89977Z" fill="white"/>
</g>
<defs>
<clipPath id="clip0_889_942">
<rect width="24" height="24" fill="white" transform="translate(6 6)"/>
</clipPath>
</defs>
</svg>
