<svg width="35" height="35" viewBox="0 0 35 35" fill="none" xmlns="http://www.w3.org/2000/svg">
<path d="M17.5 34C26.6127 34 34 26.6127 34 17.5C34 8.3873 26.6127 1 17.5 1C8.3873 1 1 8.3873 1 17.5C1 26.6127 8.3873 34 17.5 34Z" fill="#FCFF52"/>
<path fill-rule="evenodd" clip-rule="evenodd" d="M26.7291 8.20898H8.26758V26.7906H26.7304V20.3041H23.6667C22.6107 22.6709 20.2334 24.3183 17.5129 24.3183C13.7627 24.3183 10.7254 21.2347 10.7254 17.4873C10.7254 13.7385 13.7627 10.6813 17.5129 10.6813C20.2862 10.6813 22.6635 12.3828 23.7195 14.8011H26.7304V8.20898H26.7291Z" fill="black"/>
</svg>
