<svg width="35" height="35" viewBox="0 0 35 35" fill="none" xmlns="http://www.w3.org/2000/svg">
<circle cx="17.5" cy="17.5" r="16.5" fill="#627EEA"/>
<mask id="mask0_889_925" style="mask-type:luminance" maskUnits="userSpaceOnUse" x="9" y="5" width="18" height="26">
<path d="M26.1871 5.77148H9.5293V30.0014H26.1871V5.77148Z" fill="white"/>
</mask>
<g mask="url(#mask0_889_925)">
<path d="M17.3989 5.77148L17.2363 6.32364V22.3445L17.3989 22.5067L24.8355 18.1109L17.3989 5.77148Z" fill="#C1CCF8"/>
<path d="M17.3997 5.77148L9.96289 18.1109L17.3997 22.5067V14.7306V5.77148Z" fill="white"/>
<path d="M17.4041 23.915L17.3125 24.0267V29.7336L17.4041 30.0011L24.8452 19.5215L17.4041 23.915Z" fill="#C1CCF8"/>
<path d="M17.3997 30.0011V23.915L9.96289 19.5215L17.3997 30.0011Z" fill="white"/>
<path d="M17.4043 22.5066L24.8408 18.1108L17.4043 14.7305V22.5066Z" fill="#8197EE"/>
<path d="M9.96289 18.1108L17.3997 22.5066V14.7305L9.96289 18.1108Z" fill="#C1CCF8"/>
</g>
</svg>
