<svg width="35" height="35" viewBox="0 0 35 35" fill="none" xmlns="http://www.w3.org/2000/svg">
<path d="M17.5 34C26.6127 34 34 26.6127 34 17.5C34 8.3873 26.6127 1 17.5 1C8.3873 1 1 8.3873 1 17.5C1 26.6127 8.3873 34 17.5 34Z" fill="#1969EE"/>
<path d="M16.4237 5.3626C17.027 5.0458 17.9457 5.0458 18.5489 5.3626L24.708 8.58868C25.0711 8.77876 25.2717 9.06256 25.3073 9.3556H25.3126V25.5692C25.3047 25.8886 25.1027 26.2054 24.708 26.4126L18.5489 29.6387C17.9457 29.9555 17.027 29.9555 16.4237 29.6387L10.2659 26.4126C9.87257 26.2067 9.68381 25.8873 9.67457 25.5692C9.67325 25.5375 9.67325 25.5111 9.67457 25.49V9.45856C9.67457 9.4414 9.67457 9.42292 9.67457 9.40576V9.35428H9.67721C9.70493 9.0586 9.89501 8.7814 10.2659 8.58736L16.4237 5.3626ZM24.3424 18.4002L18.5489 21.4349C17.9457 21.7504 17.027 21.7504 16.4237 21.4349L10.6421 18.4068V25.5362L16.4237 28.5484C16.7498 28.7213 17.089 28.8903 17.4203 28.9114L17.4863 28.914C17.8309 28.9154 18.1661 28.7411 18.5067 28.5761L24.3424 25.5098V18.4002ZM8.67137 25.2154C8.67137 25.8371 8.74397 26.245 8.88917 26.5328C9.00929 26.7717 9.18881 26.9538 9.51617 27.1756L9.53465 27.1875C9.60725 27.2363 9.68645 27.2865 9.78281 27.3459L9.89633 27.4145L10.2461 27.6244L9.74453 28.4468L9.35249 28.2118L9.28649 28.1722C9.17297 28.1022 9.07925 28.0428 8.99213 27.9848C8.05625 27.3591 7.70777 26.678 7.70117 25.259V25.2154H8.67137ZM17.0019 14.0548C16.957 14.0706 16.9148 14.0878 16.8765 14.1076L10.7187 17.3337C10.7121 17.3363 10.7055 17.3403 10.7002 17.3442L10.6949 17.3469L10.7042 17.3522L10.7187 17.3601L16.8778 20.5862C16.9161 20.606 16.9583 20.6244 17.0032 20.639V14.0548H17.0019ZM17.9708 14.0548V20.6376C18.0157 20.6218 18.0579 20.6046 18.0962 20.5848L24.2553 17.3588C24.2619 17.3548 24.2672 17.3522 24.2738 17.3482L24.2791 17.3456L24.2698 17.3403L24.2553 17.3324L18.0962 14.1076C18.0579 14.0878 18.0157 14.0693 17.9708 14.0548ZM24.3424 10.5053L18.8182 13.3988L24.3424 16.2922V10.5053ZM10.6435 10.5119V16.2856L16.1545 13.3988L10.6435 10.5119ZM18.0962 6.21136C17.7754 6.04372 17.1959 6.04372 16.8765 6.21136L10.7187 9.43744C10.7121 9.44008 10.7055 9.44404 10.7002 9.448L10.6949 9.45064L10.7042 9.45592L10.7187 9.46384L16.8765 12.6899C17.1973 12.8576 17.7767 12.8576 18.0962 12.6899L24.254 9.46384C24.2606 9.4612 24.2659 9.45724 24.2725 9.45328L24.2777 9.45064L24.2685 9.44536L24.254 9.43744L18.0962 6.21136ZM25.2532 6.56512L25.6453 6.80008L25.7113 6.83968C25.8248 6.90964 25.9185 6.96904 26.0056 7.02712C26.9415 7.6528 27.29 8.33392 27.2966 9.75292V9.79648H26.3277C26.3277 9.17476 26.2551 8.76688 26.1099 8.47912C25.9898 8.2402 25.8103 8.05804 25.4816 7.83628L25.4631 7.82308C25.3905 7.77424 25.3113 7.72408 25.2149 7.66468L25.1014 7.59604L24.7516 7.38616L25.2532 6.56512Z" fill="white"/>
</svg>
