<svg width="69" height="64" viewBox="0 0 69 64" fill="none" xmlns="http://www.w3.org/2000/svg">
<rect x="3" width="64" height="64" rx="32" fill="#7DDEDA"/>
<path d="M52.2312 31.4432C51.9053 30.9851 44.1281 20.2383 34.2975 20.2383C24.4669 20.2383 16.69 30.985 16.3638 31.4432L16.0918 31.8234L16.3638 32.2035C16.6897 32.6616 24.4669 43.4084 34.2975 43.4084C44.1281 43.4084 51.905 32.6617 52.2312 32.2035L52.5032 31.8234L52.2312 31.4432ZM34.4593 41.9986C28.9977 41.9986 24.5553 37.4346 24.5553 31.8235C24.5553 26.2123 28.9977 21.6483 34.4593 21.6483C39.9186 21.6483 44.3633 26.2123 44.3633 31.8235C44.3633 37.4321 39.921 41.9986 34.4593 41.9986ZM17.6654 31.8235C18.6284 30.5799 21.924 26.5848 26.3713 23.9516C24.4748 26.0083 23.3035 28.7749 23.3035 31.8235C23.3035 34.8721 24.4748 37.6385 26.3713 39.6953C21.924 37.0622 18.6282 33.0672 17.6654 31.8235ZM42.9426 39.252C44.6063 37.2481 45.6183 34.6553 45.6183 31.8235C45.6183 28.9889 44.6063 26.396 42.9401 24.3924C47.0223 27.0104 50.0214 30.648 50.9328 31.8235C50.0238 32.9991 47.0246 36.6341 42.9426 39.252Z" fill="black"/>
<path d="M34.4594 26.9844C31.8622 26.9844 29.75 29.1543 29.75 31.8227C29.75 34.4911 31.8622 36.6611 34.4594 36.6611C37.0567 36.6611 39.1689 34.4911 39.1689 31.8227C39.1689 29.1543 37.0567 26.9844 34.4594 26.9844ZM34.4594 35.3725C32.5555 35.3725 31.0045 33.7789 31.0045 31.823C31.0045 29.867 32.5556 28.2735 34.4594 28.2735C36.3633 28.2735 37.9143 29.8645 37.9143 31.823C37.9143 33.779 36.3657 35.3725 34.4594 35.3725Z" fill="black"/>
</svg>
