<svg width="64" height="64" viewBox="0 0 64 64" fill="none" xmlns="http://www.w3.org/2000/svg">
<rect width="64" height="64" rx="32" fill="#7DDEDA"/>
<path fill-rule="evenodd" clip-rule="evenodd" d="M33.8449 49.2822H17.4572C17.2266 49.2807 17.0067 49.1887 16.8433 49.0246C16.6815 48.862 16.5899 48.6412 16.5899 48.4096V17.9452C16.5883 17.7137 16.68 17.4913 16.8433 17.3272C16.854 17.3165 16.8647 17.3073 16.8769 17.2981C17.0357 17.1524 17.2434 17.0711 17.4587 17.0726H19.0682V15.8335L19.0667 15.832C19.0667 15.6004 19.1583 15.3796 19.3217 15.217C19.485 15.0529 19.7049 14.9609 19.9355 14.9609H42.1563H42.1548C42.3854 14.9609 42.6053 15.053 42.7687 15.217C42.9305 15.3796 43.0237 15.6004 43.0237 15.832V30.9927H44.0208C44.1674 30.9927 44.3124 31.028 44.4422 31.097C44.4529 31.1032 44.4636 31.1078 44.4743 31.1139C44.601 31.189 44.7064 31.2918 44.7843 31.416C44.7904 31.4252 44.798 31.4359 44.8041 31.4467C44.969 31.7273 44.969 32.0755 44.8041 32.3545L43.7108 34.2577C44.1857 34.4003 44.5522 34.7822 44.6743 35.2653C44.7965 35.7484 44.656 36.2606 44.3048 36.6133L44.3017 36.6163C46.3586 37.8278 47.7985 39.8691 48.2519 42.2198C48.7069 44.5708 48.1312 47.0047 46.6745 48.9002C45.2177 50.7957 43.0204 51.9719 40.6412 52.1268C38.2606 52.2817 35.9303 51.4014 34.2416 49.7099C34.1042 49.5719 33.9713 49.4293 33.8431 49.2805L33.8449 49.2822ZM24.9654 23.92C24.0629 23.9184 23.2857 24.5594 23.1086 25.4489C22.933 26.3384 23.4063 27.2294 24.24 27.576C25.0753 27.9241 26.0373 27.6312 26.5397 26.8767C27.0405 26.1222 26.9413 25.1161 26.303 24.4751C25.9487 24.1193 25.4678 23.9184 24.9654 23.92ZM25.6892 25.0916C25.3441 24.745 24.8035 24.6914 24.3973 24.9643C23.9912 25.2358 23.8339 25.7587 24.0202 26.2111C24.2065 26.665 24.6859 26.9227 25.1654 26.8261C25.6434 26.731 25.9885 26.3093 25.9885 25.8185C25.99 25.5456 25.8816 25.2848 25.6892 25.0916ZM40.1118 37.5486C38.171 37.5486 36.3417 38.4549 35.1613 40.0007C33.9794 41.5481 33.5824 43.5571 34.0848 45.4401C34.5872 47.3218 35.9325 48.8631 37.7251 49.6083C39.5193 50.3536 41.5548 50.2186 43.2346 49.2433C44.9158 48.2679 46.0488 46.5642 46.3008 44.6319C46.5543 42.6996 45.8977 40.7596 44.5249 39.3825C43.3552 38.2048 41.767 37.5455 40.1118 37.5486ZM43.9109 40.0023C42.0984 38.1819 39.2583 37.9013 37.1267 39.3306C34.9951 40.7614 34.1674 43.5035 35.1477 45.8822C36.1281 48.2607 38.6461 49.6118 41.1595 49.1103C43.673 48.6074 45.4838 46.3913 45.4838 43.8182C45.4853 42.3859 44.9203 41.0133 43.911 40.0027L43.9109 40.0023ZM39.6782 39.875V40.332C38.7773 40.536 38.1375 41.3396 38.1375 42.2674C38.1375 43.6093 38.8643 43.9435 39.6797 44.1567V46.3881C39.2705 46.2132 39.0063 45.8099 39.0048 45.3636C39.0078 45.2471 38.9651 45.1321 38.8826 45.0477C38.8017 44.9634 38.6887 44.9143 38.5711 44.9143C38.4535 44.9143 38.3405 44.9634 38.2596 45.0477C38.1771 45.1321 38.1328 45.2471 38.1374 45.3636C38.1374 46.293 38.7772 47.0966 39.6797 47.3005V47.7591C39.6751 47.8756 39.7194 47.9906 39.8018 48.075C39.8828 48.1593 39.9958 48.2084 40.1133 48.2084C40.2309 48.2084 40.3424 48.1593 40.4249 48.075C40.5058 47.9906 40.5501 47.8756 40.547 47.7591V47.3005C41.4479 47.0966 42.0877 46.2914 42.0877 45.3636C42.0877 44.0217 41.3609 43.6875 40.5455 43.4743V41.2414C40.9532 41.4178 41.2189 41.8196 41.2189 42.2658C41.2159 42.3839 41.2601 42.4974 41.3411 42.5833C41.4235 42.6676 41.5365 42.7152 41.6541 42.7152C41.7702 42.7152 41.8831 42.6676 41.9656 42.5833C42.0465 42.4974 42.0908 42.3839 42.0878 42.2658C42.0862 41.338 41.4464 40.536 40.5455 40.332V39.8735C40.5486 39.7554 40.5058 39.6404 40.4234 39.556C40.3409 39.4717 40.2294 39.4241 40.1118 39.4241C39.9943 39.4241 39.8813 39.4717 39.8003 39.556C39.7179 39.6404 39.6736 39.7554 39.6782 39.8735L39.6782 39.875ZM40.5455 44.3914V46.3881C40.9532 46.2132 41.219 45.8099 41.219 45.3636C41.2556 44.9189 40.9731 44.511 40.5455 44.3914ZM39.6782 43.2412V41.2414C39.2689 41.4178 39.0048 41.8196 39.0032 42.2658C38.9681 42.7106 39.2506 43.1185 39.6782 43.2397V43.2412ZM33.0495 30.0587L38.197 30.0572C38.3131 30.0618 38.4276 30.0173 38.5116 29.9345C38.5956 29.8532 38.6444 29.7397 38.6444 29.6217C38.6444 29.5036 38.5956 29.3901 38.5116 29.3088C38.4276 29.226 38.3131 29.1815 38.197 29.1861H33.048C32.9304 29.1815 32.8174 29.226 32.7334 29.3088C32.6479 29.3901 32.6006 29.5036 32.6006 29.6217C32.6006 29.7397 32.6479 29.8532 32.7334 29.9345C32.8174 30.0173 32.9304 30.0618 33.048 30.0572L33.0495 30.0587ZM33.0495 27.9639L38.197 27.9624C38.3131 27.967 38.4276 27.9225 38.5116 27.8397C38.5956 27.7584 38.6444 27.6449 38.6444 27.5268C38.6444 27.4087 38.5956 27.2968 38.5116 27.214C38.4276 27.1327 38.3131 27.0882 38.197 27.0913H33.048C32.9304 27.0882 32.8174 27.1327 32.7334 27.214C32.6479 27.2968 32.6006 27.4087 32.6006 27.5268C32.6006 27.6449 32.6479 27.7584 32.7334 27.8397C32.8174 27.9225 32.9304 27.967 33.048 27.9624L33.0495 27.9639ZM33.0495 25.8691H38.197C38.3131 25.8721 38.4276 25.8276 38.5116 25.7464C38.5956 25.6636 38.6444 25.5516 38.6444 25.4335C38.6444 25.3154 38.5956 25.2019 38.5116 25.1207C38.4276 25.0379 38.3131 24.9934 38.197 24.9964H33.048C32.9304 24.9934 32.8174 25.0379 32.7334 25.1207C32.6479 25.2019 32.6006 25.3154 32.6006 25.4335C32.6006 25.5516 32.6479 25.6636 32.7334 25.7464C32.8174 25.8276 32.9304 25.8721 33.048 25.8691H33.0495ZM33.0495 23.7742H38.197C38.3131 23.7773 38.4276 23.7343 38.5116 23.6515C38.5956 23.5687 38.6444 23.4568 38.6444 23.3387C38.6444 23.2206 38.5956 23.1071 38.5116 23.0258C38.4276 22.943 38.3131 22.8985 38.197 22.9032H33.048C32.9304 22.8985 32.8174 22.943 32.7334 23.0258C32.6479 23.1071 32.6006 23.2206 32.6006 23.3387C32.6006 23.4568 32.6479 23.5687 32.7334 23.6515C32.8174 23.7343 32.9304 23.7773 33.048 23.7742H33.0495ZM33.0495 21.6794H38.197C38.3131 21.684 38.4276 21.6395 38.5116 21.5567C38.5956 21.4754 38.6444 21.3619 38.6444 21.2438C38.6444 21.1258 38.5956 21.0138 38.5116 20.931C38.4276 20.8497 38.3131 20.8052 38.197 20.8083H33.048C32.9304 20.8052 32.8174 20.8497 32.7334 20.931C32.6479 21.0138 32.6006 21.1258 32.6006 21.2438C32.6006 21.3619 32.6479 21.4754 32.7334 21.5567C32.8174 21.6395 32.9304 21.684 33.048 21.6794H33.0495ZM24.9655 21.9017C23.1041 21.9002 21.5008 23.2206 21.1358 25.0547C20.7709 26.8889 21.7482 28.7261 23.4691 29.4424C25.1885 30.1585 27.1736 29.5543 28.2089 27.9993C29.2426 26.4442 29.0396 24.3724 27.7233 23.0491C26.9934 22.3145 26.0009 21.9002 24.9655 21.9017ZM27.1125 23.6654C26.0879 22.6363 24.483 22.4784 23.2782 23.285C22.075 24.0932 21.6062 25.6436 22.1605 26.9871C22.7132 28.3305 24.1364 29.0942 25.5565 28.8105C26.9766 28.5267 27.9997 27.2753 27.9997 25.8215C28.0012 25.0118 27.682 24.2374 27.1125 23.6654ZM25.7535 20.9954L25.5473 19.8836H24.3822L24.173 21.0215V21.023C24.1425 21.1902 24.0173 21.3236 23.8523 21.365C23.6355 21.4202 23.4232 21.4907 23.2171 21.5766C23.0094 21.6625 22.8094 21.7637 22.617 21.8787C22.4689 21.9677 22.2826 21.96 22.1436 21.8603L21.1999 21.207L20.3738 22.0352L21.0274 22.989C21.1251 23.1317 21.1297 23.3203 21.0381 23.4675C20.9251 23.6577 20.8258 23.8571 20.7403 24.061C20.6548 24.2696 20.5846 24.4827 20.5311 24.7005C20.4868 24.8753 20.3403 25.0057 20.1601 25.0272L19.053 25.2342V26.4058L20.186 26.6159H20.1875C20.354 26.6466 20.4868 26.7724 20.5281 26.938C20.638 27.3735 20.8106 27.7922 21.0396 28.1771C21.1282 28.3258 21.1221 28.5129 21.0213 28.6525L20.3708 29.6033L21.1969 30.433L22.1467 29.7766C22.2887 29.6769 22.4765 29.6738 22.6231 29.7659C23.0049 29.9944 23.4187 30.1661 23.8508 30.275C24.0249 30.3179 24.1547 30.4667 24.1761 30.6461L24.3822 31.7579H25.5503L25.7595 30.6201H25.758C25.7901 30.4529 25.9153 30.3179 26.0787 30.2765C26.2955 30.2229 26.5093 30.1523 26.7154 30.0664C26.9216 29.9806 27.1232 29.8793 27.3156 29.7628C27.4622 29.6738 27.6484 29.6815 27.7889 29.7827L28.7326 30.436L29.5587 29.6064L28.9052 28.6525C28.8059 28.5083 28.8028 28.3212 28.8945 28.174C29.0075 27.9838 29.1067 27.7845 29.1907 27.579C29.2762 27.372 29.3465 27.1588 29.4014 26.941C29.4442 26.7662 29.5923 26.6358 29.771 26.6144L30.878 26.4073V25.2326L29.7435 25.0225C29.5755 24.9919 29.4427 24.8661 29.4014 24.7005C29.3465 24.4827 29.2762 24.2695 29.1907 24.061C29.1052 23.854 29.0044 23.6515 28.8899 23.4583C28.8013 23.3111 28.809 23.124 28.9082 22.9844L29.5587 22.0336L28.7326 21.2039L27.7828 21.8603C27.6408 21.96 27.453 21.9631 27.3064 21.871C27.117 21.7576 26.9185 21.6579 26.7154 21.5735C26.5093 21.4877 26.2971 21.4186 26.0802 21.365C25.9061 21.3205 25.7763 21.1717 25.755 20.9923L25.7535 20.9954ZM26.3459 19.4312V19.4327C26.3032 19.1889 26.0924 19.011 25.8466 19.0094H24.086C23.8401 19.011 23.6309 19.1873 23.5852 19.4281L23.3714 20.5936C23.2065 20.6442 23.0416 20.7025 22.8843 20.77C22.7285 20.8359 22.5697 20.9095 22.4185 20.9924L21.4458 20.3207C21.2443 20.1796 20.971 20.2041 20.7969 20.379L19.5508 21.6303C19.3798 21.8052 19.3554 22.0781 19.4928 22.2821L20.1616 23.259C20.0792 23.4124 20.0059 23.5688 19.9417 23.7283C19.8761 23.8878 19.818 24.0503 19.7661 24.2175L18.6056 24.4322H18.6071C18.3659 24.4767 18.1903 24.6883 18.1887 24.9336V26.7034C18.1903 26.9487 18.3659 27.1604 18.6071 27.2048L19.7676 27.4195C19.818 27.5852 19.8761 27.7477 19.9433 27.9087C20.0089 28.0682 20.0822 28.2247 20.1631 28.378L19.4943 29.3549H19.4928C19.3538 29.5573 19.3798 29.8318 19.5524 30.0067L20.7984 31.2581V31.2565C20.8182 31.278 20.8411 31.2964 20.8656 31.3133C21.0412 31.436 21.2718 31.4375 21.4474 31.3148L22.4185 30.6447C22.5712 30.7275 22.727 30.8011 22.8858 30.867C23.0446 30.933 23.2065 30.9912 23.3729 31.0434L23.5867 32.2089V32.2074C23.631 32.4481 23.8417 32.6245 24.086 32.626H25.8481C26.0924 32.6245 26.3032 32.4497 26.3474 32.2074L26.5612 31.0418C26.7261 30.9912 26.888 30.933 27.0483 30.8655C27.2087 30.7995 27.3644 30.7259 27.5156 30.6431L28.4883 31.3148V31.3163C28.6914 31.4559 28.9632 31.4314 29.1373 31.2581L30.3833 30.0067C30.4047 29.9867 30.423 29.9637 30.4383 29.9392C30.5604 29.7628 30.5604 29.5297 30.4383 29.3549L29.7695 28.378C29.8519 28.2247 29.9252 28.0682 29.9909 27.9087C30.0565 27.7493 30.1146 27.5867 30.1665 27.4195L31.327 27.2048H31.3255C31.5667 27.1604 31.7423 26.9503 31.7439 26.7034V24.9337C31.7423 24.6883 31.5667 24.4766 31.3255 24.4322L30.1665 24.216C30.1161 24.0503 30.0581 23.8878 29.9909 23.7267C29.9252 23.5657 29.8504 23.4093 29.7695 23.2575L30.4429 22.2821C30.5819 22.0797 30.5574 21.8052 30.3849 21.6303L29.1389 20.379C28.9648 20.2057 28.6915 20.1811 28.4899 20.3207L27.5156 20.9924C27.363 20.9096 27.2072 20.8359 27.0484 20.77C26.8896 20.7041 26.7277 20.6458 26.5613 20.5936L26.3475 19.4281L26.3459 19.4312ZM28.2944 35.4124L28.6731 35.3204L26.8101 37.676L26.8117 37.6775C26.3215 37.5027 25.7749 37.6254 25.4068 37.9949C25.3885 38.0134 25.3702 38.0318 25.3534 38.0517L24.257 37.587C24.26 37.5548 24.26 37.5226 24.26 37.4889H24.2616C24.2616 37.0809 24.0783 36.6945 23.7623 36.4384C23.4462 36.1823 23.0324 36.0826 22.6353 36.1685C22.2383 36.2543 21.9009 36.515 21.7176 36.8785C21.5344 37.242 21.5237 37.6698 21.6901 38.0409L20.1143 39.5116C19.5356 39.2003 18.8164 39.3537 18.4163 39.8766C18.0147 40.398 18.0483 41.1357 18.4957 41.6187C18.9431 42.1018 19.673 42.1877 20.2197 41.8242C20.7678 41.4593 20.9725 40.7507 20.7037 40.1481L22.2811 38.6728V38.6743C22.8033 38.9565 23.4493 38.8599 23.8692 38.4397C23.8875 38.4213 23.9058 38.4013 23.9226 38.3829L25.019 38.8476C25.016 38.8798 25.016 38.912 25.016 38.9458L25.0144 38.9442C25.0144 39.3705 25.2129 39.7708 25.5534 40.0269C25.8924 40.2815 26.3307 40.3612 26.7368 40.2416C27.143 40.122 27.4698 39.8168 27.6179 39.4181C27.766 39.0194 27.7187 38.5731 27.4897 38.2158L29.2701 35.9675L29.2518 36.2252C29.2396 36.3417 29.2762 36.4598 29.3511 36.5503C29.4274 36.6392 29.5374 36.6945 29.6534 36.7036C29.771 36.7113 29.887 36.6699 29.9741 36.5917C30.0611 36.512 30.113 36.4 30.1161 36.2819L30.2306 34.6287C30.2337 34.5858 30.2306 34.5413 30.2199 34.4984C30.194 34.3864 30.1237 34.2883 30.026 34.2285C29.9283 34.1671 29.8092 34.1487 29.6977 34.1748L28.0928 34.5659C27.9798 34.5919 27.8821 34.6625 27.8225 34.7606C27.7615 34.8603 27.7416 34.9784 27.7691 35.0919C27.7966 35.2038 27.8668 35.302 27.9661 35.3618C28.0653 35.4216 28.1844 35.4385 28.2959 35.4109L28.2944 35.4124ZM19.8136 40.3626C19.6533 40.2016 19.4028 40.1771 19.2135 40.3044C19.0256 40.4301 18.9523 40.6739 19.0379 40.8841C19.1249 41.0942 19.3478 41.2138 19.5708 41.1693C19.7937 41.1248 19.9541 40.9285 19.9541 40.7016C19.9541 40.5743 19.9037 40.4531 19.8136 40.3626ZM26.6959 38.6067C26.5356 38.4457 26.2836 38.4196 26.0942 38.5469C25.9049 38.6742 25.8316 38.918 25.9186 39.1281C26.0057 39.3397 26.2286 39.4594 26.4516 39.4149C26.6745 39.3704 26.8348 39.1726 26.8348 38.9441C26.8348 38.8183 26.7845 38.6956 26.6959 38.6067ZM23.2556 37.1467C23.0937 36.9841 22.8418 36.9581 22.6524 37.0854C22.4631 37.2127 22.3882 37.4565 22.4753 37.6681C22.5623 37.8798 22.7868 37.9994 23.0097 37.9549C23.2327 37.9104 23.3945 37.7126 23.3945 37.4841C23.3945 37.3584 23.3441 37.2357 23.2556 37.1467ZM28.7451 37.297V37.2955C28.4382 37.2955 28.1893 37.5454 28.1893 37.8537V47.2559V47.2544C28.1908 47.5626 28.4382 47.8126 28.7451 47.8126H30.8539C31.1608 47.8111 31.4082 47.5626 31.4097 47.2544V37.8537C31.4082 37.5455 31.1608 37.2955 30.8539 37.2955L28.7451 37.297ZM30.5409 38.1681H29.0582V46.9417H30.5409V38.1681ZM25.3047 41.6416C24.9977 41.6416 24.7488 41.8916 24.7488 42.1999V47.2545C24.7488 47.5627 24.9977 47.8127 25.3047 47.8127H27.4134C27.7203 47.8127 27.9677 47.5627 27.9692 47.2545V42.1999C27.9677 41.8916 27.7203 41.6416 27.4134 41.6416H25.3047ZM27.1004 42.5127H25.6177V46.9415H27.1004V42.5127ZM21.8642 40.1817C21.5573 40.1817 21.3083 40.4301 21.3083 40.7384V47.2546C21.3083 47.5629 21.5572 47.8129 21.8642 47.8129H23.9729C24.2799 47.8129 24.5272 47.5629 24.5272 47.2546V40.7384C24.5272 40.4301 24.2783 40.1817 23.9729 40.1817H21.8642ZM23.6599 41.0528H22.1757V46.9417H23.6584L23.6599 41.0528ZM18.4225 43.3976C18.1171 43.3976 17.8682 43.6476 17.8682 43.9558V47.2545C17.8682 47.5628 18.1171 47.8112 18.4225 47.8127H20.5313C20.8382 47.8127 21.0871 47.5628 21.0871 47.2545V43.9558C21.0871 43.6476 20.8382 43.3976 20.5313 43.3976H18.4225ZM20.2183 44.2702H18.7356V46.9417H20.2183L20.2198 44.2702H20.2183ZM42.1565 30.9927V15.8304C37.2854 15.4363 24.8052 15.4363 19.9357 15.8304V17.0695H39.6766C39.9056 17.0711 40.127 17.1631 40.2889 17.3256C40.4523 17.4897 40.5439 17.7121 40.5439 17.9436V30.9926L42.1565 30.9927ZM39.6782 30.9927V17.9453H17.4574V48.4097H33.1837C31.9285 46.4989 31.5101 44.154 32.0277 41.9241C32.5454 39.6943 33.9533 37.776 35.92 36.6194L35.917 36.6163C35.5673 36.2636 35.4283 35.7514 35.5505 35.2698C35.6726 34.7868 36.0376 34.4034 36.5125 34.2608L35.4176 32.3576C35.2527 32.0769 35.2527 31.7303 35.4176 31.4497C35.4894 31.324 35.5917 31.2166 35.7139 31.1369C35.7245 31.1292 35.7352 31.1231 35.7459 31.1169C35.8833 31.0372 36.0391 30.9958 36.1995 30.9958L39.6782 30.9927ZM37.4794 34.201H42.7461L44.0562 31.9221C44.0593 31.916 44.0624 31.9098 44.0624 31.9022C44.0624 31.896 44.0608 31.8899 44.0578 31.8838L44.0532 31.8745L44.0517 31.8761C44.0501 31.873 44.0471 31.8699 44.044 31.8684C44.0379 31.8669 44.0318 31.8669 44.0257 31.8684H36.1997C36.1936 31.8669 36.1875 31.8684 36.1814 31.8699L36.1753 31.873C36.1722 31.8776 36.1692 31.8807 36.1676 31.8853C36.1646 31.8899 36.1615 31.896 36.1615 31.9037C36.1615 31.9098 36.1631 31.9175 36.1676 31.9236L37.4794 34.201ZM37.0014 37.0319C34.9338 37.9889 33.416 39.846 32.8832 42.0697C32.3518 44.2934 32.8633 46.6383 34.2727 48.4356C35.6837 50.2314 37.8352 51.2788 40.1121 51.2788C42.3889 51.2788 44.5403 50.2314 45.95 48.4356C47.3594 46.6382 47.8725 44.2933 47.3395 42.0697C46.8081 39.846 45.2903 37.9887 43.2229 37.0319H37.0014ZM43.3095 35.072L36.9146 35.0736C36.6214 35.0812 36.3878 35.322 36.3878 35.6164C36.3878 35.9109 36.6214 36.1532 36.9146 36.1608H43.3095C43.6027 36.1532 43.8363 35.9109 43.8363 35.6164C43.8363 35.322 43.6027 35.0812 43.3095 35.0736V35.072Z" fill="black"/>
</svg>
