<svg width="64" height="64" viewBox="0 0 64 64" fill="none" xmlns="http://www.w3.org/2000/svg">
<rect width="64" height="64" rx="32" fill="#7DDEDA"/>
<path d="M45.5138 32.6152C47.9154 32.6152 49.8684 30.6584 49.8684 28.2521C49.8684 25.8459 47.9154 23.8926 45.5138 23.8926C43.1122 23.8926 41.1627 25.8494 41.1627 28.2521C41.1627 30.6566 43.1158 32.6152 45.5138 32.6152ZM45.5138 25.0633C47.2703 25.0633 48.6998 26.4938 48.6998 28.2537C48.6998 30.0136 47.2703 31.4459 45.5138 31.4459C43.7573 31.4459 42.3295 30.0136 42.3295 28.2537C42.3295 26.4938 43.7573 25.0633 45.5138 25.0633ZM47.4383 33.1506H44.1307C42.1204 33.1506 40.3443 34.445 39.7045 36.3374L36.5131 37.4779C36.5077 37.4797 36.5024 37.4814 36.4988 37.4832L32.4586 39.0498C32.0584 39.2056 31.7421 39.4151 31.4991 39.6567C31.2578 39.415 30.9415 39.2038 30.5395 39.0498L26.4993 37.4832C26.4939 37.4814 26.4904 37.4797 26.485 37.4779L23.2954 36.3374C22.6557 34.4468 20.8777 33.1506 18.8674 33.1506H15.5581C12.9974 33.1667 10.9141 35.2668 10.9141 37.8343V41.6137C10.9141 41.646 10.9141 41.6835 10.9176 41.7283C10.9212 41.8268 10.9319 41.9163 10.948 42.0004C11.1356 43.0836 12.0666 43.8696 13.1638 43.8696C13.5551 43.8696 13.925 43.7693 14.2449 43.5921V46.1595C14.2449 46.4817 14.5058 46.7449 14.8292 46.7449H22.958C23.2796 46.7449 23.5423 46.4835 23.5423 46.1595V41.6441C23.8264 41.739 24.0802 41.8232 24.3089 41.9002C26.1834 42.525 26.4711 42.6217 29.3175 43.3862C30.2288 43.6297 30.9972 43.3325 31.5011 42.8025C32.005 43.3325 32.7733 43.6315 33.6828 43.3862C36.533 42.6199 36.8207 42.525 38.6969 41.8984C38.9239 41.8232 39.1758 41.739 39.4582 41.6441V46.1595C39.4582 46.4817 39.719 46.7449 40.0425 46.7449H48.1676C48.4893 46.7449 48.7519 46.4835 48.7519 46.1595V43.5921C49.0736 43.7693 49.4417 43.8696 49.833 43.8696C50.9355 43.8696 51.8701 43.08 52.0541 41.9897C52.0666 41.9145 52.0756 41.8285 52.0827 41.7337C52.0845 41.7211 52.0845 41.7086 52.0845 41.6961V37.836C52.0845 35.2704 50.0028 33.1684 47.4387 33.1523L47.4383 33.1506ZM29.6175 42.2544C26.8049 41.4989 26.5619 41.4183 24.6766 40.7881C24.2603 40.6485 23.7617 40.4838 23.1399 40.2779C22.9612 40.2188 22.7664 40.2492 22.6145 40.3602C22.4627 40.4694 22.3733 40.6467 22.3733 40.8347V45.5757H15.4133V38.0059C15.4133 37.6836 15.1524 37.4204 14.829 37.4204C14.5073 37.4204 14.2447 37.6818 14.2447 38.0059V41.617C14.2447 42.215 13.7586 42.7002 13.1636 42.7002C12.6418 42.7002 12.1844 42.3117 12.0968 41.796C12.095 41.7889 12.0932 41.7817 12.0932 41.7728C12.0915 41.762 12.0861 41.7316 12.0843 41.6761C12.0843 41.6653 12.0825 41.6564 12.0825 41.6457V41.6134V37.834C12.0825 35.9093 13.6443 34.3338 15.5616 34.3213H18.8674C20.4542 34.3213 21.8497 35.3973 22.2572 36.9405C22.3072 37.1267 22.4448 37.2771 22.6253 37.3416L26.0847 38.5787L30.1178 40.1435C30.5395 40.3064 30.7789 40.5481 30.8915 40.8077C30.8415 41.0816 30.8432 41.3591 30.8915 41.6223C30.7164 42.0592 30.2572 42.4298 29.6156 42.2579L29.6175 42.2544ZM50.9158 41.6744C50.9122 41.7334 50.9068 41.771 50.9033 41.7943C50.8157 42.3099 50.3565 42.6985 49.8347 42.6985C49.2379 42.6985 48.7536 42.2115 48.7536 41.6153V38.0041C48.7536 37.6819 48.4927 37.4187 48.1693 37.4187C47.8477 37.4187 47.585 37.6801 47.585 38.0041V45.574H40.6268V40.833C40.6268 40.645 40.5375 40.4677 40.3856 40.3585C40.2337 40.2493 40.0389 40.2188 39.8602 40.2761C39.2402 40.4802 38.7434 40.6467 38.3271 40.7864C36.4383 41.4166 36.1971 41.499 33.3793 42.2545C32.7378 42.4264 32.2804 42.0575 32.1052 41.6189C32.1535 41.3575 32.1553 41.08 32.1052 40.8043C32.2178 40.5447 32.4573 40.303 32.879 40.1401L36.912 38.5753L40.3732 37.3382C40.5537 37.2737 40.6913 37.1233 40.7413 36.9371C41.1505 35.3956 42.5425 34.3179 44.1293 34.3179H47.4333C49.3524 34.3304 50.9142 35.9059 50.9142 37.8306V41.6709L50.9158 41.6744ZM17.4846 32.6149C19.8862 32.6149 21.8393 30.6581 21.8393 28.2518C21.8393 25.8456 19.8862 23.8923 17.4846 23.8923C15.083 23.8923 13.1335 25.8492 13.1335 28.2518C13.1335 30.6563 15.0866 32.6149 17.4846 32.6149ZM17.4846 25.063C19.2411 25.063 20.6707 26.4935 20.6707 28.2534C20.6707 30.0133 19.2411 31.4456 17.4846 31.4456C15.7281 31.4456 14.3004 30.0133 14.3004 28.2534C14.3004 26.4935 15.7281 25.063 17.4846 25.063ZM23.3724 27.3654L24.3928 27.6232C24.5322 28.0815 24.718 28.5273 24.9449 28.957L24.4053 29.863C24.0765 30.4108 24.1622 31.1091 24.6143 31.5602L25.4059 32.3534C25.8634 32.8117 26.5442 32.8976 27.1017 32.5646L28.0059 32.0222C28.4294 32.2495 28.8743 32.4339 29.3353 32.5754L29.5944 33.5995C29.7517 34.2172 30.3056 34.6486 30.94 34.6486H32.0603C32.7072 34.6486 33.2486 34.2279 33.4094 33.5977L33.665 32.5754C34.126 32.4357 34.5709 32.2495 34.9944 32.0222L35.8986 32.5646C36.4472 32.8941 37.1441 32.8063 37.5926 32.3534L38.3824 31.562C38.8363 31.1108 38.9238 30.4108 38.5968 29.8648L38.0572 28.957C38.2841 28.5309 38.4682 28.0851 38.6075 27.6232L39.6279 27.3654C40.2461 27.2114 40.6786 26.6564 40.6786 26.0155V24.8929C40.6786 24.252 40.2461 23.6969 39.6314 23.5448L38.6093 23.2869C38.4699 22.825 38.2859 22.381 38.0589 21.9549L38.5986 21.0472C38.9292 20.4904 38.8452 19.8083 38.386 19.3482L37.5943 18.555C37.144 18.1039 36.4472 18.0179 35.9022 18.3455L34.9962 18.8862C34.5691 18.6571 34.1242 18.4727 33.6668 18.333L33.4094 17.3071C33.2522 16.6895 32.6965 16.2598 32.0621 16.2598H30.9417C30.3074 16.2598 29.7534 16.6912 29.5962 17.3089L29.3389 18.333C28.8814 18.4727 28.4365 18.6589 28.0095 18.8862L27.1035 18.3455C26.5496 18.0143 25.8687 18.0985 25.4077 18.555L24.6143 19.35C24.1605 19.8101 24.0765 20.4904 24.4071 21.0472L24.9467 21.9549C24.7216 22.3793 24.5357 22.825 24.3946 23.2852L23.376 23.543C22.756 23.6969 22.3235 24.252 22.3235 24.8929V26.0155C22.3235 26.6564 22.756 27.2096 23.3742 27.3636L23.3724 27.3654ZM23.4904 24.8947C23.4904 24.7908 23.5547 24.7067 23.6583 24.6816L25.0057 24.3397C25.2129 24.2878 25.3756 24.1248 25.4292 23.9171C25.5793 23.3281 25.8116 22.766 26.1207 22.2485C26.2315 22.0641 26.2315 21.8332 26.1207 21.6488L25.4077 20.4492C25.3523 20.3579 25.3648 20.2523 25.4399 20.1771L26.2297 19.3857C26.3065 19.3105 26.4102 19.2962 26.5031 19.3517L27.7003 20.0661C27.8844 20.1753 28.1149 20.1753 28.2989 20.0661C28.8207 19.7528 29.38 19.52 29.9625 19.3732C30.1698 19.3213 30.3342 19.1584 30.386 18.9489L30.7273 17.5972C30.7541 17.4951 30.8381 17.4289 30.9418 17.4289H32.0621C32.1694 17.4289 32.2515 17.4933 32.2784 17.5936L32.6179 18.9471C32.6697 19.1566 32.8341 19.3195 33.0414 19.3732C33.6203 19.52 34.1814 19.7528 34.7067 20.0661C34.8908 20.1753 35.1195 20.1753 35.3054 20.0661L36.5026 19.3499C36.5919 19.2962 36.6974 19.3087 36.7706 19.3821L37.5622 20.1753C37.6391 20.2523 37.6516 20.3543 37.5962 20.4474L36.8832 21.647C36.7742 21.8314 36.7742 22.0623 36.8832 22.2468C37.1923 22.766 37.4246 23.3264 37.5712 23.9136C37.623 24.1213 37.7856 24.286 37.9947 24.3379L39.3473 24.6798C39.4474 24.7049 39.5099 24.7873 39.5099 24.8929V26.0154C39.5099 26.1211 39.4474 26.2034 39.3438 26.2285L37.9929 26.5705C37.7856 26.6224 37.6212 26.7871 37.5694 26.9948C37.4228 27.5802 37.1906 28.1424 36.8796 28.6652C36.7706 28.8496 36.7706 29.0787 36.8796 29.2649L37.5944 30.4645C37.648 30.554 37.6355 30.6561 37.5587 30.733L36.7653 31.528C36.692 31.6032 36.5901 31.6157 36.499 31.5602L35.3018 30.8441C35.1177 30.7331 34.8872 30.7331 34.7014 30.8441C34.1832 31.1556 33.6221 31.3883 33.036 31.5369C32.8269 31.5888 32.6643 31.7536 32.6125 31.963L32.2748 33.3148C32.248 33.4186 32.1658 33.4813 32.0586 33.4813H30.9382C30.8328 33.4813 30.7506 33.4168 30.7255 33.3148L30.3843 31.9612C30.3324 31.7536 30.168 31.5889 29.9608 31.5369C29.3728 31.3883 28.8136 31.1556 28.2989 30.8459C28.206 30.7904 28.1024 30.7617 27.9987 30.7617C27.8951 30.7617 27.7915 30.7886 27.6985 30.8441L26.5031 31.5602C26.4102 31.6157 26.3083 31.6032 26.2315 31.5262L25.4399 30.7331C25.3666 30.6596 25.3541 30.554 25.4077 30.4627L26.1207 29.2632C26.2297 29.0788 26.2297 28.8496 26.1207 28.6634C25.808 28.137 25.5757 27.5748 25.4292 26.993C25.3774 26.7853 25.2147 26.6206 25.0057 26.5687L23.6548 26.2267C23.5529 26.2016 23.4886 26.1193 23.4886 26.0137V24.8911L23.4904 24.8947ZM31.5012 30.0977C34.0547 30.0977 36.1328 28.0155 36.1328 25.4571C36.1328 22.8986 34.0547 20.8146 31.5012 20.8146C28.9477 20.8146 26.8677 22.8968 26.8677 25.4571C26.8677 28.0173 28.9459 30.0977 31.5012 30.0977ZM31.5012 21.9856C33.4114 21.9856 34.9642 23.5432 34.9642 25.4572C34.9642 27.3711 33.4114 28.9269 31.5012 28.9269C29.591 28.9269 28.0364 27.3711 28.0364 25.4572C28.0364 23.5432 29.591 21.9856 31.5012 21.9856ZM29.8179 24.5763C29.8179 23.9479 30.2771 23.4125 30.9168 23.2049V23.0294C30.9168 22.7071 31.1777 22.444 31.5011 22.444C31.8228 22.444 32.0854 22.7054 32.0854 23.0294V23.2031C32.4982 23.3356 32.8431 23.6041 33.0307 23.9604C33.1808 24.2468 33.0718 24.5995 32.7859 24.7517C32.5 24.9021 32.148 24.7929 31.9961 24.5065C31.9371 24.3954 31.7495 24.2827 31.5011 24.2827C31.1866 24.2827 30.9847 24.4563 30.9847 24.5763C30.9847 24.7159 30.9847 24.7625 31.6083 24.8824C32.1569 24.9881 33.1808 25.1832 33.1808 26.3362C33.1808 26.9646 32.7234 27.5018 32.0837 27.7094V27.8831C32.0837 28.2054 31.8228 28.4685 31.4994 28.4685C31.1777 28.4685 30.9151 28.2071 30.9151 27.8831V27.713C30.5684 27.6038 30.27 27.3961 30.0681 27.1132C29.8804 26.8501 29.9412 26.4848 30.2039 26.2969C30.4666 26.1089 30.8311 26.1697 31.0187 26.4329C31.0848 26.5242 31.2492 26.6316 31.4994 26.6316C31.8121 26.6316 32.0122 26.4562 32.0122 26.3362C32.0122 26.1984 32.0122 26.1518 31.3904 26.0319C30.84 25.9262 29.8161 25.7311 29.8161 24.5763L29.8179 24.5763Z" fill="black"/>
</svg>
