<svg width="64" height="64" viewBox="0 0 64 64" fill="none" xmlns="http://www.w3.org/2000/svg">
<rect width="64" height="64" rx="32" fill="#7DDEDA"/>
<path d="M32.1158 32.5394C32.8061 32.2515 33.2919 31.571 33.2919 30.7798C33.2919 29.7292 32.4354 28.8743 31.3828 28.8743C30.3303 28.8743 29.4737 29.7292 29.4737 30.7798C29.4737 31.571 29.9595 32.2515 30.6499 32.5394C29.1939 32.8726 28.1044 34.1755 28.1044 35.7295C28.1044 35.9974 28.3218 36.2129 28.5888 36.2129H34.1768C34.4453 36.2129 34.6612 35.996 34.6612 35.7295C34.6626 34.177 33.5717 32.874 32.1158 32.5394ZM31.3828 29.8427C31.9013 29.8427 32.3232 30.2638 32.3232 30.7812C32.3232 31.2988 31.9013 31.7198 31.3828 31.7198C30.8644 31.7198 30.4425 31.2987 30.4425 30.7812C30.4425 30.2637 30.8644 29.8427 31.3828 29.8427ZM29.1243 35.2461C29.3473 34.2068 30.2749 33.4242 31.3828 33.4242C32.4908 33.4242 33.4184 34.2054 33.6413 35.2461H29.1243ZM45.9978 32.8372C44.1426 32.341 42.2363 33.3178 41.5247 35.0462L37.5814 33.9913C37.651 33.6156 37.6879 33.2299 37.6879 32.8344C37.6879 30.6821 36.5999 28.7794 34.9436 27.6436L36.9862 24.1133C37.1396 24.1771 37.2987 24.2323 37.4621 24.2763C37.7874 24.3628 38.1183 24.4067 38.4465 24.4067C39.1013 24.4067 39.7476 24.2352 40.33 23.8992C40.4763 23.8141 40.6155 23.7205 40.7476 23.6199L41.5913 24.462C41.3513 24.8278 41.2121 25.2659 41.2121 25.7352C41.2121 27.0226 42.2618 28.0718 43.553 28.0718C44.8427 28.0718 45.8939 27.0241 45.8939 25.7352C45.8939 24.4479 44.8442 23.3987 43.553 23.3987C43.0828 23.3987 42.6453 23.5376 42.2774 23.7772L41.4351 22.9365C41.7362 22.5466 41.9592 22.0971 42.0913 21.608C42.6311 19.5989 41.4322 17.5246 39.418 16.9874C38.4422 16.7266 37.4237 16.8613 36.5501 17.3646C35.6766 17.8679 35.0501 18.6818 34.7887 19.6558C34.5274 20.6298 34.6623 21.6464 35.1666 22.5184C35.4209 22.9579 35.7533 23.3336 36.1453 23.6328L34.1055 27.1603C33.2802 26.7648 32.3569 26.5422 31.3825 26.5422C30.4081 26.5422 29.4833 26.7648 28.6595 27.1603L26.6183 23.6314C27.2802 23.128 27.7561 22.4262 27.9762 21.6096C28.2376 20.6355 28.1027 19.6189 27.5984 18.747C27.0941 17.875 26.2788 17.2498 25.3029 16.9889C24.3271 16.728 23.3086 16.8627 22.435 17.366C21.5615 17.8693 20.935 18.6832 20.6737 19.6572C20.4123 20.6313 20.5472 21.6478 21.0515 22.5198C21.5558 23.3917 22.3711 24.017 23.347 24.2779C23.6722 24.3644 24.0032 24.4084 24.3313 24.4084C24.8271 24.4084 25.3185 24.3091 25.7802 24.1163L27.8214 27.6467C26.1666 28.7824 25.0785 30.6851 25.0785 32.8374C25.0785 33.81 25.3015 34.7331 25.6978 35.5554L22.1609 37.5942C21.6722 36.9534 20.9748 36.4628 20.1367 36.2388C19.2986 36.0148 18.4492 36.0927 17.7049 36.4032L17.1055 35.3668C17.5813 34.9386 17.881 34.319 17.881 33.6314C17.881 32.344 16.8313 31.2948 15.5401 31.2948C14.2503 31.2948 13.1992 32.3426 13.1992 33.6314C13.1992 34.9188 14.2489 35.968 15.5401 35.968C15.793 35.968 16.0373 35.9269 16.2646 35.8531L16.8611 36.8853C16.2191 37.3731 15.7276 38.0692 15.5032 38.9057C15.2418 39.8798 15.3768 40.8964 15.881 41.7683C16.3853 42.6402 17.2006 43.2655 18.1765 43.5264C18.5018 43.6129 18.8327 43.6569 19.1609 43.6569C19.8157 43.6569 20.462 43.4853 21.0444 43.1493C21.9179 42.646 22.5444 41.8321 22.8058 40.8581C23.0302 40.0216 22.9521 39.1737 22.641 38.4308L26.1794 36.3919C27.2305 37.9189 28.9393 38.9624 30.8954 39.1113V43.1863C29.4223 43.3791 28.1368 44.4326 27.7292 45.9511C27.4678 46.9251 27.6028 47.9417 28.107 48.8137C28.6113 49.6856 29.4266 50.3109 30.4025 50.5718C30.7292 50.6583 31.0573 50.7008 31.3798 50.7008C33.0488 50.7008 34.58 49.5878 35.0318 47.9034C35.0758 47.739 35.107 47.5745 35.1283 47.4114H36.3201C36.3698 47.6454 36.4565 47.8765 36.5829 48.0948C36.8954 48.635 37.3996 49.0221 38.0033 49.1837C38.205 49.2376 38.4096 49.2645 38.6127 49.2645C39.0175 49.2645 39.4181 49.1582 39.7789 48.9498C40.8968 48.3061 41.2803 46.8741 40.6354 45.7583C39.9905 44.6424 38.5559 44.2596 37.438 44.9033C36.8414 45.2478 36.4536 45.8164 36.3201 46.4416L35.1312 46.4402C34.938 44.9699 33.8826 43.6868 32.3613 43.2799C32.1965 43.236 32.0317 43.2048 31.8684 43.1835L31.8669 39.11C34.3982 38.9171 36.5146 37.2257 37.3299 34.9261L41.2731 35.9809C41.1609 36.8047 41.3228 37.6369 41.7461 38.3685C42.2504 39.2405 43.0657 39.8658 44.0416 40.1266C44.3669 40.2131 44.6979 40.2571 45.026 40.2571C45.6808 40.2571 46.3271 40.0855 46.9095 39.7495C47.7831 39.2462 48.4095 38.4324 48.6709 37.4583C49.2092 35.4478 48.0104 33.375 45.9976 32.8378L45.9978 32.8372ZM37.7138 23.3406C37.424 23.2627 37.1541 23.1421 36.9098 22.9834C37.2479 22.4432 37.8388 22.1085 38.4979 22.1085C39.1286 22.1085 39.7053 22.4233 40.0504 22.9309C39.9851 22.9762 39.9169 23.0202 39.8473 23.0599C39.1967 23.4342 38.4396 23.5349 37.7138 23.3406ZM38.4978 20.5178C38.1016 20.5178 37.7791 20.1959 37.7791 19.8003C37.7791 19.4048 38.1015 19.0829 38.4978 19.0829C38.8941 19.0829 39.2166 19.4048 39.2166 19.8003C39.2152 20.1959 38.8942 20.5178 38.4978 20.5178ZM43.5531 24.3659C44.3088 24.3659 44.9238 24.9798 44.9238 25.7341C44.9238 26.4884 44.3088 27.1023 43.5531 27.1023C42.7974 27.1023 42.1824 26.4884 42.1824 25.7341C42.1824 24.9784 42.7974 24.3659 43.5531 24.3659ZM35.7266 19.904C35.9212 19.1809 36.3857 18.5755 37.0362 18.2012C37.4695 17.9517 37.9496 17.824 38.4368 17.824C38.6811 17.824 38.9269 17.8567 39.1684 17.9205C40.6655 18.3203 41.5576 19.8615 41.1556 21.3558C41.0689 21.6763 40.9297 21.974 40.745 22.2377C40.3843 21.7741 39.8899 21.4338 39.3303 21.2637C39.8402 20.973 40.1854 20.4257 40.1854 19.799C40.1854 18.8704 39.4283 18.1147 38.4979 18.1147C37.5675 18.1147 36.8104 18.8704 36.8104 19.799C36.8104 20.3804 37.1059 20.8936 37.5548 21.1956L37.4795 21.3246C36.9653 21.5189 36.5178 21.8606 36.1925 22.3115C36.1258 22.2221 36.0633 22.13 36.0079 22.0322C35.6314 21.3842 35.532 20.6285 35.7266 19.904ZM21.6088 19.904C21.8034 19.1809 22.2678 18.5755 22.9184 18.2012C23.3517 17.9517 23.8318 17.824 24.319 17.824C24.5633 17.824 24.8091 17.8567 25.0505 17.9205C25.775 18.1147 26.3815 18.5783 26.7565 19.2277C27.1315 19.8771 27.2309 20.6328 27.0378 21.3559C26.9511 21.6763 26.8119 21.974 26.6272 22.2378C26.2664 21.7741 25.7721 21.4339 25.2125 21.2637C25.7224 20.9731 26.0676 20.4258 26.0676 19.7991C26.0676 18.8704 25.3105 18.1147 24.3801 18.1147C23.4497 18.1147 22.6926 18.8704 22.6926 19.7991C22.6926 20.4258 23.0364 20.9716 23.5463 21.2623C22.954 21.4409 22.4398 21.8081 22.0762 22.31C22.0094 22.2207 21.9469 22.1285 21.8915 22.0307C21.5151 21.3842 21.4156 20.6285 21.6088 19.904ZM24.3801 20.5179C23.9838 20.5179 23.6613 20.1961 23.6613 19.8005C23.6613 19.4049 23.9837 19.0831 24.3801 19.0831C24.7764 19.0831 25.0988 19.4049 25.0988 19.8005C25.0988 20.196 24.7764 20.5179 24.3801 20.5179ZM23.5974 23.3408C23.3076 23.2628 23.0377 23.1423 22.7934 22.9835C23.1315 22.4433 23.7224 22.1087 24.3815 22.1087C25.0122 22.1087 25.5889 22.4234 25.9341 22.931C25.8687 22.9764 25.8005 23.0203 25.7309 23.06C25.0789 23.4343 24.3218 23.535 23.5974 23.3408ZM14.1712 33.6301C14.1712 32.8758 14.7863 32.2619 15.542 32.2619C16.2976 32.2619 16.9127 32.8758 16.9127 33.6301C16.9127 34.3843 16.2976 34.9983 15.542 34.9983C14.7863 34.9983 14.1712 34.3843 14.1712 33.6301ZM18.4298 42.5894C18.14 42.5115 17.8701 42.3909 17.6258 42.2321C17.9639 41.692 18.5548 41.3573 19.2139 41.3573C19.8446 41.3573 20.4213 41.6721 20.7664 42.1797C20.7011 42.225 20.6329 42.269 20.5633 42.3087C19.9127 42.6844 19.1542 42.7837 18.4298 42.5894ZM19.2124 39.7666C18.8161 39.7666 18.4937 39.4447 18.4937 39.0491C18.4937 38.6536 18.8161 38.3317 19.2124 38.3317C19.6087 38.3317 19.9312 38.6536 19.9312 39.0491C19.9312 39.4447 19.6087 39.7666 19.2124 39.7666ZM21.8715 40.6059C21.7849 40.9264 21.6457 41.2241 21.461 41.4878C21.1002 41.0242 20.6059 40.6839 20.0462 40.5138C20.5562 40.2231 20.9014 39.6758 20.9014 39.0491C20.9014 38.1205 20.1443 37.3648 19.2139 37.3648C18.2835 37.3648 17.5264 38.1205 17.5264 39.0491C17.5264 39.6758 17.8701 40.2217 18.3801 40.5123C17.7878 40.691 17.2736 41.0582 16.9099 41.5601C16.8432 41.4708 16.7807 41.3786 16.7253 41.2808C16.3503 40.6314 16.2508 39.8757 16.444 39.1526C16.7807 37.9007 17.9184 37.0727 19.1599 37.0727C19.4 37.0727 19.6443 37.1038 19.8858 37.1691C21.3815 37.5703 22.2721 39.1115 21.8715 40.6059ZM37.9268 45.7411C38.5816 45.364 39.4211 45.588 39.7989 46.2416C40.1768 46.8952 39.9523 47.7332 39.2975 48.1103C38.9808 48.2932 38.6114 48.3414 38.2577 48.2464C37.904 48.1514 37.6086 47.926 37.4253 47.6098C37.0475 46.9562 37.272 46.1182 37.9268 45.7411ZM30.6555 49.6357C30.3657 49.5577 30.0958 49.4372 29.8516 49.2784C30.1896 48.7382 30.7805 48.4036 31.4396 48.4036C32.0703 48.4036 32.6456 48.7169 32.9908 49.2245C32.3331 49.6811 31.4879 49.8569 30.6555 49.6357ZM31.4382 46.8114C31.0419 46.8114 30.7194 46.4896 30.7194 46.094C30.7194 45.6984 31.0419 45.3766 31.4382 45.3766C31.8345 45.3766 32.1569 45.6984 32.1569 46.094C32.1569 46.4896 31.8345 46.8114 31.4382 46.8114ZM34.0973 47.6508C34.0106 47.9755 33.8686 48.2718 33.6853 48.5327C33.3245 48.0691 32.8302 47.7302 32.2706 47.5586C32.7805 47.268 33.1257 46.7207 33.1257 46.094C33.1257 45.1653 32.3686 44.4096 31.4382 44.4096C30.5078 44.4096 29.7507 45.1653 29.7507 46.094C29.7507 46.7207 30.0945 47.2665 30.6044 47.5572C30.0121 47.7358 29.4979 48.103 29.1342 48.6049C29.0675 48.5156 29.005 48.4235 28.9496 48.3256C28.5746 47.6763 28.4752 46.9206 28.6683 46.1961C29.005 44.9441 30.1428 44.1161 31.3843 44.1161C31.6243 44.1161 31.8686 44.1473 32.1115 44.2125C33.6073 44.6152 34.4978 46.1564 34.0973 47.6508ZM31.3828 38.16C28.441 38.16 26.0461 35.771 26.0461 32.8332C26.0461 29.8969 28.4395 27.5063 31.3828 27.5063C34.3245 27.5063 36.7195 29.8954 36.7195 32.8332C36.7195 35.771 34.3246 38.16 31.3828 38.16ZM44.2919 39.1908C44.0021 39.1128 43.7322 38.9923 43.4879 38.8335C43.826 38.2933 44.4169 37.9587 45.076 37.9587C45.7067 37.9587 46.2834 38.2734 46.6285 38.781C46.5632 38.8264 46.495 38.8703 46.4254 38.91C45.7748 39.2858 45.0163 39.385 44.2919 39.1908ZM45.0745 36.3679C44.6782 36.3679 44.3558 36.046 44.3558 35.6505C44.3558 35.2549 44.6782 34.933 45.0745 34.933C45.4709 34.933 45.7933 35.2549 45.7933 35.6505C45.7933 36.046 45.4709 36.3679 45.0745 36.3679ZM47.7336 37.2072C47.647 37.5277 47.5078 37.8254 47.3231 38.0891C46.9623 37.6255 46.468 37.2852 45.9084 37.1151C46.4183 36.8244 46.7635 36.2772 46.7635 35.6505C46.7635 34.7218 46.0064 33.9661 45.076 33.9661C44.1456 33.9661 43.3885 34.7218 43.3885 35.6505C43.3885 36.2772 43.7322 36.823 44.2422 37.1136C43.6499 37.2923 43.1357 37.6595 42.772 38.1614C42.7053 38.0721 42.6428 37.9799 42.5874 37.8821C42.2124 37.2327 42.1129 36.477 42.3061 35.7539C42.6428 34.502 43.7806 33.674 45.022 33.674C45.2621 33.674 45.5064 33.7052 45.7479 33.7704C47.2436 34.1716 48.1342 35.7129 47.7336 37.2072Z" fill="black"/>
</svg>
