<svg width="35" height="35" viewBox="0 0 35 35" fill="none" xmlns="http://www.w3.org/2000/svg">
<circle cx="17.5" cy="17.5" r="16.5" fill="#3E6957"/>
<path d="M13.0544 19.6599C13.7455 19.6599 14.4174 19.4296 14.9646 19.0073L10.5874 14.6309C9.53152 15.9937 9.7811 17.9516 11.1442 19.0073C11.6913 19.42 12.3632 19.6503 13.0544 19.6503V19.6599Z" fill="white"/>
<path d="M26.0572 16.5408C26.0572 15.8497 25.8269 15.1779 25.4045 14.6309L21.0273 19.0073C22.3904 20.063 24.3486 19.8135 25.4045 18.4507C25.8269 17.9036 26.0572 17.2318 26.0572 16.5408Z" fill="white"/>
<path d="M28.2697 11.7832L26.3307 13.7219C27.8858 15.5934 27.6458 18.3671 25.774 19.9315C24.1326 21.3039 21.7616 21.3039 20.1202 19.9315L17.9988 22.0525L15.8774 19.9315C14.0056 21.4862 11.2315 21.2463 9.66683 19.3748C8.29417 17.7336 8.29417 15.3631 9.66683 13.7219L8.67813 12.7334L7.73742 11.7832C6.59514 13.6547 6 15.8045 6 18.0024C6 24.6246 11.3755 29.9992 17.9988 29.9992C24.6221 29.9992 29.9976 24.6246 29.9976 18.0024C30.0072 15.8141 29.3928 13.6547 28.2697 11.7832Z" fill="white"/>
<path d="M26.6724 9.71405C22.1033 4.92492 14.5104 4.74257 9.72053 9.31096C9.57654 9.44532 9.44216 9.57969 9.31737 9.71405C9.0198 10.0308 8.74143 10.3571 8.47266 10.693L17.9949 20.2137L27.5171 10.693C27.2579 10.3475 26.97 10.0212 26.6724 9.71405ZM17.9949 7.56422C20.7978 7.56422 23.4087 8.64874 25.3765 10.6162L17.9949 17.9967L10.6132 10.6162C12.5714 8.63914 15.192 7.56422 17.9949 7.56422Z" fill="white"/>
</svg>
