<svg width="35" height="35" viewBox="0 0 35 35" fill="none" xmlns="http://www.w3.org/2000/svg">
<path d="M34 17.5C34 8.392 26.608 1 17.5 1C8.392 1 1 8.392 1 17.5C1 26.608 8.392 34 17.5 34C26.608 34 34 26.608 34 17.5Z" fill="#FF0420"/>
<path d="M12.6966 21.8837C11.7066 21.8837 10.9014 21.6461 10.281 21.1841C9.66055 20.7089 9.34375 20.0357 9.34375 19.1777C9.34375 18.9929 9.37015 18.7685 9.40975 18.5045C9.51535 17.9105 9.67375 17.1977 9.87175 16.3529C10.4394 14.0825 11.8914 12.9473 14.2278 12.9473C14.8614 12.9473 15.4422 13.0529 15.9438 13.2773C16.4454 13.4885 16.8414 13.8053 17.1318 14.2277C17.4222 14.6501 17.5674 15.1385 17.5674 15.7193C17.5674 15.8909 17.541 16.1153 17.5014 16.3793C17.3694 17.1185 17.2242 17.8313 17.0526 18.5309C16.7622 19.6661 16.2606 20.5109 15.5478 21.0785C14.835 21.6329 13.8846 21.9101 12.6966 21.9101V21.8837ZM12.8814 20.1017C13.3434 20.1017 13.7394 19.9565 14.0562 19.6925C14.3862 19.4153 14.6238 19.0061 14.769 18.4385C14.967 17.6597 15.1122 16.9865 15.2046 16.4057C15.2442 16.2341 15.2574 16.0493 15.2574 15.8645C15.2574 15.1121 14.8614 14.7293 14.0826 14.7293C13.6206 14.7293 13.2246 14.8745 12.8946 15.1385C12.5646 15.4157 12.3402 15.8249 12.195 16.3925C12.0366 16.9469 11.8914 17.6201 11.7462 18.4253C11.7066 18.5969 11.6934 18.7685 11.6934 18.9533C11.6802 19.7189 12.0894 20.1017 12.8814 20.1017Z" fill="white"/>
<path d="M18.119 21.7657C18.0266 21.7657 17.9606 21.7393 17.9078 21.6733C17.8682 21.6073 17.855 21.5281 17.8682 21.4489L19.5842 13.3969C19.5974 13.3045 19.6502 13.2253 19.7294 13.1725C19.8086 13.1065 19.8878 13.0801 19.967 13.0801H23.267C24.191 13.0801 24.917 13.2781 25.4714 13.6477C26.039 14.0305 26.3162 14.5849 26.3162 15.2977C26.3162 15.5089 26.2898 15.7201 26.237 15.9445C26.0258 16.8949 25.6166 17.5945 24.983 18.0565C24.3626 18.5185 23.5046 18.7429 22.4222 18.7429H20.7458L20.1782 21.4621C20.1518 21.5545 20.1122 21.6337 20.033 21.6865C19.9538 21.7525 19.8746 21.7789 19.7954 21.7789H18.1058L18.119 21.7657ZM22.5014 17.0269C22.8578 17.0269 23.1482 16.9345 23.4122 16.7365C23.6762 16.5385 23.8478 16.2745 23.9402 15.9181C23.9666 15.7729 23.9798 15.6541 23.9798 15.5485C23.9798 15.3109 23.9006 15.1261 23.7686 14.9941C23.6234 14.8621 23.3858 14.7961 23.0426 14.7961H21.551L21.0758 17.0137H22.5014V17.0269Z" fill="white"/>
</svg>
