<svg width="35" height="35" viewBox="0 0 35 35" fill="none" xmlns="http://www.w3.org/2000/svg">
<path d="M17.5 34C26.5816 34 34 26.5684 34 17.5C34 8.4184 26.5684 1 17.5 1C8.4184 1 1 8.4316 1 17.5C1 26.5816 8.4316 34 17.5 34Z" fill="url(#paint0_linear_874_905)"/>
<path d="M22.2769 21.0625L26.9497 18.3697C27.2005 18.2245 27.3457 17.9605 27.3457 17.6701V12.2845C27.3457 11.9941 27.1873 11.7301 26.9497 11.5849L22.2769 8.8921C22.0261 8.7469 21.7225 8.7469 21.4717 8.8921L16.7989 11.5849C16.5481 11.7301 16.4029 11.9941 16.4029 12.2845V21.9205L13.1293 23.8081L9.85573 21.9205V18.1453L13.1293 16.2577L15.2941 17.4985V14.9641L13.5385 13.9477C13.4197 13.8817 13.2745 13.8421 13.1425 13.8421C12.9973 13.8421 12.8653 13.8817 12.7465 13.9477L8.07373 16.6405C7.82293 16.7857 7.67773 17.0497 7.67773 17.3401V22.7257C7.67773 23.0161 7.83613 23.2801 8.07373 23.4253L12.7465 26.1181C12.9973 26.2633 13.3009 26.2633 13.5517 26.1181L18.2245 23.4253C18.4753 23.2801 18.6205 23.0161 18.6205 22.7257V13.0897L18.6733 13.0501L21.8941 11.1889L25.1677 13.0765V16.8517L21.8941 18.7393L19.7425 17.4985V20.0329L21.4981 21.0493C21.7489 21.1945 22.0525 21.1945 22.3033 21.0493L22.2769 21.0625Z" fill="white"/>
<defs>
<linearGradient id="paint0_linear_874_905" x1="-5.03548" y1="3.67975" x2="28.9941" y2="24.549" gradientUnits="userSpaceOnUse">
<stop stop-color="#A229C5"/>
<stop offset="1" stop-color="#7B3FE4"/>
</linearGradient>
</defs>
</svg>
