<svg width="42" height="42" viewBox="0 0 42 42" fill="none" xmlns="http://www.w3.org/2000/svg">
<path d="M21 33.25C21.3675 33.25 21.707 33.0768 22.3878 32.7303L27.8653 29.9478C30.289 28.7158 31.5 28.0998 31.5 27.125V14.875M21 33.25C20.6325 33.25 20.293 33.0768 19.6122 32.7303L14.1347 29.9478C11.711 28.7158 10.5 28.0998 10.5 27.125V14.875M21 33.25V21M31.5 14.875C31.5 13.9003 30.289 13.2825 27.8653 12.0523L22.3878 9.26975C21.707 8.92325 21.3675 8.75 21 8.75C20.6325 8.75 20.293 8.92325 19.6122 9.26975L14.1347 12.0523C11.711 13.2843 10.5 13.9003 10.5 14.875M31.5 14.875C31.5 15.8498 30.289 16.4675 27.8653 17.6978L22.3878 20.4803C21.707 20.8268 21.3658 21 21 21M10.5 14.875C10.5 15.8498 11.711 16.4675 14.1347 17.6978L19.6122 20.4803C20.293 20.8268 20.6342 21 21 21" stroke="#002320" stroke-width="1.75" stroke-linecap="round" stroke-linejoin="round"/>
<path d="M23.0825 37.758L31.297 33.782C34.9318 32.025 36.75 31.143 36.75 29.75V12.25C36.75 10.857 34.9318 9.97675 31.297 8.218L23.0825 4.242C22.0605 3.74675 21.5495 3.5 21 3.5C20.4505 3.5 19.9395 3.74675 18.9175 4.242L10.703 8.218C7.06825 9.975 5.25 10.857 5.25 12.25V29.75C5.25 31.143 7.06825 32.0233 10.703 33.782L18.9175 37.758C19.9395 38.2533 20.4505 38.5 21 38.5C21.5495 38.5 22.0605 38.2533 23.0825 37.758Z" stroke="#002320" stroke-width="1.75" stroke-linecap="round" stroke-linejoin="round"/>
</svg>
