<svg width="42" height="42" viewBox="0 0 42 42" fill="none" xmlns="http://www.w3.org/2000/svg">
<path d="M21 38.5C21.427 38.5 21.8242 38.3022 22.6205 37.905L29.008 34.7253C31.8378 33.32 33.25 32.6148 33.25 31.5V17.5M21 38.5C20.573 38.5 20.1758 38.3022 19.3795 37.905L12.992 34.7253C10.1622 33.32 8.75 32.6148 8.75 31.5V17.5M21 38.5V24.5M33.25 17.5C33.25 16.3852 31.836 15.6817 29.0097 14.2747L22.6205 11.0933C21.8225 10.6978 21.427 10.5 21 10.5M33.25 17.5C33.25 18.6148 31.836 19.3183 29.0097 20.7253L22.6205 23.9068C21.8242 24.3023 21.427 24.5 21 24.5M8.75 17.5C8.75 16.3852 10.1622 15.68 12.992 14.2747L19.3795 11.095C20.1758 10.6978 20.573 10.5 21 10.5M8.75 17.5C8.75 18.6148 10.164 19.3183 12.9902 20.7253L19.3795 23.9068C20.1758 24.3023 20.573 24.5 21 24.5M21 10.5V3.5M38.5 36.75L33.25 32.375M3.5 36.75L8.75 32.375" stroke="#002320" stroke-width="1.5" stroke-linecap="round" stroke-linejoin="round"/>
</svg>
