<svg width="42" height="42" viewBox="0 0 42 42" fill="none" xmlns="http://www.w3.org/2000/svg">
<path d="M21 22.75L29.75 30.625M21 22.75L12.25 30.625M21 22.75V14M21 14C21.4987 14 21.9502 13.7392 22.8515 13.2195L23.9592 12.5825C24.864 12.0628 25.3155 11.8038 25.564 11.375C25.8125 10.9462 25.8125 10.4265 25.8125 9.387V8.113C25.8125 7.0735 25.8125 6.55375 25.564 6.125C25.3155 5.69625 24.864 5.43725 23.961 4.9175L22.8533 4.2805C21.9485 3.76075 21.4987 3.5 21 3.5C20.5013 3.5 20.0515 3.76075 19.1485 4.2805L18.0408 4.9175C17.136 5.43725 16.6845 5.69625 16.436 6.125C16.1875 6.55375 16.1875 7.0735 16.1875 8.113V9.387C16.1875 10.4265 16.1875 10.9462 16.436 11.375C16.6845 11.8038 17.136 12.0628 18.039 12.5825L19.1467 13.2195C20.0515 13.7392 20.5013 14 21 14ZM31.836 28.7805C32.739 28.259 33.1905 28 33.6875 28C34.1845 28 34.636 28.259 35.539 28.7805L36.6485 29.4175C37.5515 29.9372 38.003 30.1962 38.2515 30.625C38.5 31.0538 38.5 31.5735 38.5 32.613V33.887C38.5 34.9265 38.5 35.4462 38.2515 35.875C38.003 36.3038 37.5515 36.5628 36.6485 37.0825L35.539 37.7195C34.636 38.241 34.1845 38.5 33.6875 38.5C33.1905 38.5 32.739 38.241 31.836 37.7195L30.7265 37.0825C29.8235 36.5628 29.372 36.3038 29.1235 35.875C28.875 35.4462 28.875 34.9265 28.875 33.887V32.613C28.875 31.5735 28.875 31.0538 29.1235 30.625C29.372 30.1962 29.8235 29.9372 30.7265 29.4175L31.836 28.7805ZM6.461 28.7805C7.364 28.259 7.8155 28 8.3125 28C8.8095 28 9.261 28.259 10.164 28.7805L11.2735 29.4175C12.1765 29.9372 12.628 30.1962 12.8765 30.625C13.125 31.0538 13.125 31.5735 13.125 32.613V33.887C13.125 34.9265 13.125 35.4462 12.8765 35.875C12.628 36.3038 12.1765 36.5628 11.2735 37.0825L10.164 37.7195C9.261 38.241 8.8095 38.5 8.3125 38.5C7.8155 38.5 7.364 38.241 6.461 37.7195L5.3515 37.0825C4.4485 36.5628 3.997 36.3038 3.7485 35.875C3.5 35.4462 3.5 34.9265 3.5 33.887V32.613C3.5 31.5735 3.5 31.0538 3.7485 30.625C3.997 30.1962 4.4485 29.9372 5.3515 29.4175L6.461 28.7805Z" stroke="#002320" stroke-width="1.5" stroke-linecap="round" stroke-linejoin="round"/>
</svg>
