<svg width="42" height="42" viewBox="0 0 42 42" fill="none" xmlns="http://www.w3.org/2000/svg">
<path d="M8.71325 16.9488C5.23775 15.5593 3.5 14.8645 3.5 14C3.5 13.1355 5.23775 12.4425 8.71325 11.0513L13.6273 9.086C17.1028 7.69475 18.8422 7 21 7C23.1578 7 24.8972 7.69475 28.3727 9.086L33.2867 11.0513C36.7622 12.4408 38.5 13.1355 38.5 14C38.5 14.8645 36.7622 15.5575 33.2867 16.9488L28.3727 18.9158C24.8972 20.3053 23.1578 21 21 21C18.8422 21 17.1028 20.3053 13.6273 18.9158L8.71325 16.9488Z" stroke="#002320" stroke-width="1.5"/>
<path opacity="0.5" d="M10.0905 17.5L8.71325 18.0512C5.23775 19.4407 3.5 20.1372 3.5 21C3.5 21.8628 5.23775 22.5575 8.71325 23.9488L13.6273 25.9158C17.1028 27.3053 18.8422 28 21 28C23.1578 28 24.8972 27.3053 28.3727 25.9158L33.2867 23.9488C36.7622 22.5593 38.5 21.8628 38.5 21C38.5 20.1372 36.7622 19.4425 33.2867 18.0512L31.9095 17.5M10.0905 24.5L8.71325 25.0512C5.23775 26.4407 3.5 27.1372 3.5 28C3.5 28.8628 5.23775 29.5575 8.71325 30.9487L13.6273 32.9158C17.1028 34.3053 18.8422 35 21 35C23.1578 35 24.8972 34.3053 28.3727 32.914L33.2867 30.9487C36.7622 29.5592 38.5 28.8645 38.5 28C38.5 27.1372 36.7622 26.4425 33.2867 25.0512L31.9095 24.5" stroke="#002320" stroke-width="1.5"/>
</svg>
