<svg width="42" height="42" viewBox="0 0 42 42" fill="none" xmlns="http://www.w3.org/2000/svg">
<path d="M7 24.5H11.1912C11.7057 24.5 12.2133 24.6155 12.6735 24.8395L16.247 26.5685C16.7073 26.7908 17.2147 26.9062 17.731 26.9062H19.5545C21.3185 26.9062 22.75 28.2905 22.75 29.9985C22.75 30.0685 22.7028 30.128 22.6345 30.1472L18.1877 31.3775C17.3898 31.5979 16.539 31.5208 15.7937 31.1605L11.9735 29.3125" stroke="#002320" stroke-width="1.5" stroke-linecap="round" stroke-linejoin="round"/>
<path d="M22.75 28.875L30.7878 26.4057C31.4875 26.191 32.2372 26.2028 32.9298 26.4395C33.6225 26.6761 34.2227 27.1255 34.6448 27.7235C35.2905 28.616 35.028 29.897 34.0865 30.4395L20.9353 38.0293C20.524 38.2672 20.0687 38.4189 19.5969 38.4752C19.1252 38.5314 18.6469 38.491 18.1913 38.3565L7 35.035M22.75 8.75H26.25M26.25 21H22.75C19.4495 21 17.801 21 16.7755 19.9745C15.75 18.949 15.75 17.3005 15.75 14V10.5C15.75 7.1995 15.75 5.551 16.7755 4.5255C17.801 3.5 19.4495 3.5 22.75 3.5H26.25C29.5505 3.5 31.199 3.5 32.2245 4.5255C33.25 5.551 33.25 7.1995 33.25 10.5V14C33.25 17.3005 33.25 18.949 32.2245 19.9745C31.199 21 29.5505 21 26.25 21Z" stroke="#002320" stroke-width="1.5" stroke-linecap="round" stroke-linejoin="round"/>
</svg>
