<svg width="42" height="42" viewBox="0 0 42 42" fill="none" xmlns="http://www.w3.org/2000/svg">
<path d="M7 21C7 17.2305 8.48925 13.8092 10.9113 11.2928C11.1248 11.487 11.3085 11.7337 11.4467 12.0452C11.8038 12.845 11.8038 13.6692 11.8038 14.399C11.8038 14.973 11.8038 15.519 11.9875 15.9128C12.2395 16.4518 13.328 16.6828 14.2887 16.8823L14.3238 16.891C14.6563 16.961 14.9975 17.031 15.309 17.1185C16.1945 17.3635 16.8805 18.1597 17.4282 18.7985C17.6557 19.0627 17.9935 19.453 18.1632 19.551C18.2507 19.488 18.5325 19.1817 18.6707 18.6795C18.7792 18.2945 18.7477 17.955 18.592 17.7695C17.612 16.6145 17.6662 14.392 17.969 13.5712C18.445 12.278 19.9325 12.3743 21.021 12.4443H21.0315C21.434 12.4705 21.812 12.4967 22.0955 12.46C22.9198 12.355 23.3118 11.382 23.5568 10.773C23.6355 10.5788 23.6985 10.4212 23.7563 10.3425C24.22 9.70725 25.5483 8.7815 26.516 8.12875C28.3196 8.90381 29.9405 10.0486 31.2741 11.4892C32.6077 12.9298 33.6242 14.6341 34.258 16.492C35.7361 16.9953 37.1196 17.7424 38.3512 18.7023C37.226 10.1238 29.8865 3.5 21 3.5C11.3348 3.5 3.5 11.3348 3.5 21C3.5 29.8865 10.1238 37.226 18.7023 38.3512C17.7424 37.1196 16.9953 35.7361 16.492 34.258C13.7233 33.3163 11.3191 31.5313 9.61667 29.1535C7.91428 26.7757 6.99924 23.9244 7 21ZM29.75 22.75C27.8935 22.75 26.113 23.4875 24.8003 24.8003C23.4875 26.113 22.75 27.8935 22.75 29.75C22.75 31.6065 23.4875 33.387 24.8003 34.6997C26.113 36.0125 27.8935 36.75 29.75 36.75C31.6065 36.75 33.387 36.0125 34.6997 34.6997C36.0125 33.387 36.75 31.6065 36.75 29.75C36.75 27.8935 36.0125 26.113 34.6997 24.8003C33.387 23.4875 31.6065 22.75 29.75 22.75ZM19.25 29.75C19.25 28.3711 19.5216 27.0057 20.0493 25.7318C20.5769 24.4579 21.3504 23.3004 22.3254 22.3254C23.3004 21.3504 24.4579 20.5769 25.7318 20.0493C27.0057 19.5216 28.3711 19.25 29.75 19.25C31.1289 19.25 32.4943 19.5216 33.7682 20.0493C35.0421 20.5769 36.1996 21.3504 37.1746 22.3254C38.1496 23.3004 38.9231 24.4579 39.4507 25.7318C39.9784 27.0057 40.25 28.3711 40.25 29.75C40.25 32.5348 39.1438 35.2055 37.1746 37.1746C35.2055 39.1438 32.5348 40.25 29.75 40.25C26.9652 40.25 24.2945 39.1438 22.3254 37.1746C20.3562 35.2055 19.25 32.5348 19.25 29.75ZM28 24.5V31.5H35V28H31.5V24.5H28Z" fill="#002320"/>
</svg>
