<svg width="19" height="19" viewBox="0 0 19 19" fill="none" xmlns="http://www.w3.org/2000/svg">
<path d="M18.3558 5.39569C18.3448 4.63558 18.2042 3.88149 17.9351 3.17058C17.4642 1.95661 16.5052 0.996681 15.2913 0.526757C14.5894 0.262676 13.8474 0.121097 13.0963 0.105031C12.1303 0.0618541 11.8241 0.0498047 9.37203 0.0498047C6.92 0.0498047 6.60571 0.0498048 5.64679 0.105031C4.89671 0.121097 4.15468 0.262676 3.4528 0.526757C2.23884 0.996681 1.27891 1.95661 0.808983 3.17058C0.544902 3.87245 0.402319 4.61449 0.388261 5.36456C0.345085 6.33152 0.332031 6.63777 0.332031 9.08981C0.332031 11.5418 0.332031 11.8551 0.388261 12.8151C0.403323 13.5661 0.544902 14.3072 0.808983 15.011C1.27991 16.224 2.23884 17.1839 3.45381 17.6539C4.15267 17.927 4.89471 18.0816 5.64779 18.1057C6.61475 18.1489 6.921 18.1619 9.37304 18.1619C11.8251 18.1619 12.1394 18.1619 13.0983 18.1057C13.8484 18.0906 14.5904 17.9491 15.2933 17.685C16.5072 17.2141 17.4662 16.2541 17.9371 15.0412C18.2012 14.3383 18.3428 13.5973 18.3578 12.8452C18.401 11.8792 18.414 11.573 18.414 9.11993C18.412 6.66789 18.412 6.35662 18.3558 5.39569ZM9.36601 13.7268C6.80151 13.7268 4.72401 11.6493 4.72401 9.08479C4.72401 6.52029 6.80151 4.44279 9.36601 4.44279C11.9285 4.44279 14.008 6.52029 14.008 9.08479C14.008 11.6493 11.9285 13.7268 9.36601 13.7268ZM14.1928 5.35351C13.5933 5.35351 13.1103 4.86953 13.1103 4.27108C13.1103 3.67263 13.5933 3.18865 14.1928 3.18865C14.7902 3.18865 15.2742 3.67263 15.2742 4.27108C15.2742 4.86953 14.7902 5.35351 14.1928 5.35351Z" fill="#154E4D"/>
<path d="M9.36495 12.099C11.0303 12.099 12.3803 10.749 12.3803 9.0837C12.3803 7.41837 11.0303 6.06836 9.36495 6.06836C7.69962 6.06836 6.34961 7.41837 6.34961 9.0837C6.34961 10.749 7.69962 12.099 9.36495 12.099Z" fill="#154E4D"/>
</svg>
