<svg width="21" height="21" viewBox="0 0 21 21" fill="none" xmlns="http://www.w3.org/2000/svg">
<path d="M13.4615 7.10745C12.8263 7.10527 12.1969 7.22836 11.6093 7.46968C11.0218 7.711 10.4875 8.06581 10.0372 8.51381C9.58692 8.96181 9.22937 9.49421 8.98503 10.0805C8.74069 10.6669 8.61437 11.2956 8.61328 11.9308V16.8039C8.61328 17.0017 8.69187 17.1915 8.83175 17.3313C8.97163 17.4712 9.16134 17.5498 9.35916 17.5498H11.0996C11.2974 17.5498 11.4871 17.4712 11.627 17.3313C11.7669 17.1915 11.8454 17.0017 11.8454 16.8039V11.9308C11.8453 11.7049 11.8927 11.4815 11.9847 11.2751C12.0767 11.0688 12.2111 10.8841 12.3792 10.7332C12.5473 10.5823 12.7454 10.4685 12.9604 10.3993C13.1755 10.33 13.4027 10.3069 13.6273 10.3313C14.0301 10.3821 14.4002 10.5788 14.6675 10.8844C14.9349 11.1899 15.0808 11.5829 15.0776 11.9888V16.8039C15.0776 17.0017 15.1562 17.1915 15.2961 17.3313C15.4359 17.4712 15.6257 17.5498 15.8235 17.5498H17.5639C17.7617 17.5498 17.9514 17.4712 18.0913 17.3313C18.2312 17.1915 18.3098 17.0017 18.3098 16.8039V11.9308C18.3087 11.2956 18.1823 10.6669 17.938 10.0805C17.6937 9.49421 17.3361 8.96181 16.8858 8.51381C16.4355 8.06581 15.9013 7.711 15.3137 7.46968C14.7261 7.22836 14.0967 7.10527 13.4615 7.10745Z" fill="#154E4D"/>
<path d="M6.37611 7.85352H4.13846C3.72652 7.85352 3.39258 8.18746 3.39258 8.5994V16.8041C3.39258 17.2161 3.72652 17.55 4.13846 17.55H6.37611C6.78805 17.55 7.12199 17.2161 7.12199 16.8041V8.5994C7.12199 8.18746 6.78805 7.85352 6.37611 7.85352Z" fill="#154E4D"/>
<path d="M5.25729 6.36125C6.28713 6.36125 7.12199 5.52639 7.12199 4.49654C7.12199 3.46669 6.28713 2.63184 5.25729 2.63184C4.22744 2.63184 3.39258 3.46669 3.39258 4.49654C3.39258 5.52639 4.22744 6.36125 5.25729 6.36125Z" fill="#154E4D"/>
</svg>
