<svg width="23" height="15" viewBox="0 0 23 15" fill="none" xmlns="http://www.w3.org/2000/svg">
<path d="M7.23502 0.858398C7.86995 0.858398 8.44698 0.912666 8.97156 1.02843C9.49343 1.14601 9.93932 1.3269 10.3147 1.58015C10.6855 1.83339 10.9776 2.16804 11.1829 2.59313C11.3864 3.01822 11.4905 3.5428 11.4905 4.15783C11.4905 4.82712 11.3367 5.38788 11.0319 5.8401C10.7262 6.29232 10.2749 6.6541 9.67342 6.94353C10.4928 7.17868 11.0988 7.59473 11.5022 8.18262C11.9074 8.77956 12.1037 9.49407 12.1037 10.3171C12.1037 10.9955 11.9861 11.5743 11.7328 12.0627C11.4796 12.5602 11.1269 12.9672 10.6837 13.2837C10.2496 13.5985 9.73402 13.8264 9.17326 13.9774C8.62154 14.1267 8.04089 14.2072 7.44576 14.2072H0.959961V0.86473H7.23502V0.858398ZM16.2813 11.8583C16.6793 12.2454 17.2518 12.4399 17.9943 12.4399C18.528 12.4399 18.9892 12.306 19.3781 12.0356C19.7616 11.7733 19.9932 11.4839 20.0836 11.1854H22.4243C22.0598 12.3431 21.4765 13.1752 20.7059 13.6726C19.9371 14.1791 19.0019 14.4233 17.9202 14.4233C17.1632 14.4233 16.4875 14.3057 15.8653 14.0615C15.2566 13.8173 14.7438 13.4736 14.3096 13.0305C13.89 12.5873 13.5653 12.0537 13.3355 11.4296C13.1067 10.8055 12.9982 10.1181 12.9982 9.37649C12.9982 8.65022 13.1203 7.98364 13.3627 7.35957C13.6069 6.72646 13.9451 6.20188 14.3756 5.74061C14.8233 5.27934 15.3371 4.93113 15.9458 4.6607C16.5545 4.39027 17.212 4.26907 17.9536 4.26907C18.7767 4.26907 19.4822 4.4174 20.1062 4.7421C20.7122 5.04961 21.2097 5.48375 21.6076 6.00833C22.0056 6.53833 22.2859 7.14793 22.4578 7.83531C22.6296 8.51365 22.6839 9.22816 22.6477 9.9879H15.6925C15.6925 10.7476 15.9458 11.464 16.3347 11.8556L16.2623 11.8827L16.2813 11.8583ZM7.01976 11.9035C7.30648 11.9035 7.58052 11.8764 7.8392 11.8194C8.10149 11.7651 8.33483 11.6702 8.52929 11.5481C8.71922 11.426 8.88202 11.2514 8.9996 11.0208C9.11718 10.8037 9.17145 10.5052 9.17145 10.1525C9.17145 9.47418 8.97247 8.98577 8.5926 8.6873C8.20369 8.39788 7.6972 8.25317 7.06408 8.25317H3.89037V11.9162H7.01976V11.8891V11.9035ZM19.3266 6.79339C19.0082 6.44518 18.4764 6.25796 17.8279 6.25796C17.4046 6.25796 17.0546 6.32489 16.7733 6.47322C16.5002 6.60888 16.2759 6.78977 16.104 7.00684C15.9322 7.22391 15.8173 7.44097 15.7495 7.68518C15.6817 7.92033 15.641 8.1374 15.6274 8.32733H19.9344C19.8711 7.649 19.6359 7.15155 19.3194 6.79882V6.80786L19.3266 6.79339ZM6.85696 6.23715C7.37612 6.23715 7.80664 6.11596 8.1458 5.86452C8.48407 5.62032 8.64687 5.21332 8.64687 4.65437C8.64687 4.34324 8.58356 4.08909 8.48407 3.88921C8.36649 3.69023 8.21273 3.53647 8.03184 3.42613C7.84191 3.31398 7.62484 3.23619 7.38064 3.19368C7.13644 3.14575 6.87415 3.12676 6.6209 3.12676H3.88133V6.23806H6.85696V6.23715ZM15.0856 1.7529H20.4834V3.06797H15.0856V1.74204V1.75109V1.7529Z" fill="#154E4D"/>
</svg>
